<?xml version="1.0" encoding="UTF-8" standalone="no"?>
<!-- Generated by IcoMoon.io -->

<svg
   xmlns:dc="http://purl.org/dc/elements/1.1/"
   xmlns:cc="http://creativecommons.org/ns#"
   xmlns:rdf="http://www.w3.org/1999/02/22-rdf-syntax-ns#"
   xmlns:svg="http://www.w3.org/2000/svg"
   xmlns="http://www.w3.org/2000/svg"
   xmlns:sodipodi="http://sodipodi.sourceforge.net/DTD/sodipodi-0.dtd"
   xmlns:inkscape="http://www.inkscape.org/namespaces/inkscape"
   version="1.1"
   width="512"
   height="512"
   viewBox="0 0 512 512"
   id="svg2"
   inkscape:version="0.48.3.1 r9886"
   sodipodi:docname="angry.svg">
  <metadata
     id="metadata136">
    <rdf:RDF>
      <cc:Work
         rdf:about="">
        <dc:format>image/svg+xml</dc:format>
        <dc:type
           rdf:resource="http://purl.org/dc/dcmitype/StillImage" />
      </cc:Work>
    </rdf:RDF>
  </metadata>
  <defs
     id="defs134" />
  <sodipodi:namedview
     pagecolor="#ffffff"
     bordercolor="#666666"
     borderopacity="1"
     objecttolerance="10"
     gridtolerance="10"
     guidetolerance="10"
     inkscape:pageopacity="0"
     inkscape:pageshadow="2"
     inkscape:window-width="1600"
     inkscape:window-height="876"
     id="namedview132"
     showgrid="false"
     inkscape:zoom="0.4609375"
     inkscape:cx="183.32203"
     inkscape:cy="256"
     inkscape:window-x="0"
     inkscape:window-y="24"
     inkscape:window-maximized="1"
     inkscape:current-layer="svg2" />
  <path
     d="M256 512c141.385 0 256-114.615 256-256s-114.615-256-256-256-256 114.615-256 256 114.615 256 256 256zM256 48c114.875 0 208 93.125 208 208s-93.125 208-208 208-208-93.125-208-208 93.125-208 208-208zM352.049 390.37c-19.587-32.574-55.272-54.37-96.049-54.37-40.778 0-76.462 21.796-96.049 54.37l-41.164-24.698c27.98-46.535 78.958-77.672 137.213-77.672 58.254 0 109.232 31.137 137.213 77.672l-41.164 24.698zM383.521 140.12c2.142 8.572-3.070 17.259-11.641 19.402-8.813 2.225-19.261 6.060-28.468 10.675 5.324 5.715 8.587 13.376 8.587 21.803 0 17.673-14.327 32-32 32-17.673 0-32-14.327-32-32 0-0.585 0.018-1.165 0.049-1.742 1.016-23.727 22.606-39.473 40.796-48.569 17.371-8.685 34.551-13.030 35.274-13.211 8.573-2.144 17.259 3.069 19.403 11.642zM128.479 140.12c2.144-8.573 10.83-13.786 19.403-11.642 0.723 0.181 17.903 4.526 35.274 13.211 18.19 9.096 39.78 24.842 40.796 48.569 0.031 0.577 0.049 1.157 0.049 1.742 0 17.673-14.327 32-32 32s-32-14.327-32-32c0-8.427 3.263-16.088 8.587-21.803-9.207-4.615-19.655-8.45-28.468-10.675-8.571-2.143-13.783-10.83-11.641-19.402z"
     id="path130"
     style="fill:#ff0000;fill-opacity:1" />
</svg>
