<?xml version="1.0" encoding="UTF-8" standalone="no"?>
<!-- Created with Inkscape (http://www.inkscape.org/) -->

<svg
   xmlns:dc="http://purl.org/dc/elements/1.1/"
   xmlns:cc="http://creativecommons.org/ns#"
   xmlns:rdf="http://www.w3.org/1999/02/22-rdf-syntax-ns#"
   xmlns:svg="http://www.w3.org/2000/svg"
   xmlns="http://www.w3.org/2000/svg"
   xmlns:sodipodi="http://sodipodi.sourceforge.net/DTD/sodipodi-0.dtd"
   xmlns:inkscape="http://www.inkscape.org/namespaces/inkscape"
   id="svg2"
   version="1.1"
   inkscape:version="0.48.5 r10040"
   width="780"
   height="780"
   sodipodi:docname="rpsls.jpg">
  <metadata
     id="metadata8">
    <rdf:RDF>
      <cc:Work
         rdf:about="">
        <dc:format>image/svg+xml</dc:format>
        <dc:type
           rdf:resource="http://purl.org/dc/dcmitype/StillImage" />
        <dc:title></dc:title>
      </cc:Work>
    </rdf:RDF>
  </metadata>
  <defs
     id="defs6" />
  <sodipodi:namedview
     pagecolor="#ffffff"
     bordercolor="#666666"
     borderopacity="1"
     objecttolerance="10"
     gridtolerance="10"
     guidetolerance="10"
     inkscape:pageopacity="0"
     inkscape:pageshadow="2"
     inkscape:window-width="1600"
     inkscape:window-height="876"
     id="namedview4"
     showgrid="false"
     inkscape:zoom="0.85578051"
     inkscape:cx="476.05204"
     inkscape:cy="404.81638"
     inkscape:window-x="0"
     inkscape:window-y="24"
     inkscape:window-maximized="1"
     inkscape:current-layer="svg2" />
  <path
     style="fill:#007fce;fill-opacity:1"
     d="m 567.10897,738.58712 c 0.2749,-1.93144 0.9274,-2.18973 5.5615,-2.20143 2.8875,-0.007 5.25,0.33021 5.25,0.75 0,0.41979 0.45,0.76326 1,0.76326 0.55,0 0.8875,-0.50272 0.75,-1.11716 -0.1375,-0.61444 0.4817,-1.24144 1.3761,-1.39333 0.8943,-0.1519 3.0318,-0.58493 4.75,-0.9623 2.8032,-0.6157 3.1223,-0.44704 3.1085,1.64333 -0.012,1.87087 -0.2061,2.03416 -0.9846,0.82946 -0.8041,-1.24421 -0.9746,-1.15895 -1,0.5 -0.023,1.4801 -0.2506,1.65309 -0.8766,0.66547 -0.6432,-1.01464 -0.9766,-0.83486 -1.3911,0.75 -0.5429,2.07627 -2.7323,2.96513 -2.7323,1.10928 0,-0.62706 -0.8926,-0.6359 -2.5,-0.0248 -2.0138,0.76564 -2.5,0.64278 -2.5,-0.63174 0,-1.03195 -0.5502,-1.37113 -1.5818,-0.97525 -0.87,0.33385 -1.8825,0.61388 -2.25,0.6223 -0.3675,0.008 -0.054,0.40466 0.6974,0.88052 0.9003,0.57033 -0.058,0.88486 -2.8114,0.92286 -3.7391,0.0516 -4.1445,-0.17184 -3.8657,-2.13052 z m 2.4946,-0.87567 c -0.3193,-0.79773 -0.5562,-0.56078 -0.6042,0.60417 -0.043,1.05416 0.1929,1.64479 0.5252,1.3125 0.3323,-0.33229 0.3678,-1.1948 0.079,-1.91667 z m 22.3169,-3.3125 c 0,-2.41844 1.2044,-3.05207 4.8503,-2.5516 0.7427,0.10195 1.0536,-0.29473 0.691,-0.88152 -0.3627,-0.58678 -0.1347,-1.06688 0.5066,-1.06688 0.6524,0 0.8987,0.69675 0.559,1.58179 -0.3338,0.86998 -0.6069,2.30599 -0.6069,3.19113 0,1.39579 -0.1659,1.41652 -1.25,0.15624 -0.6875,-0.79921 -1.1414,-1.26412 -1.0087,-1.03314 0.3762,0.65473 -1.8835,3.10398 -2.8638,3.10398 -0.4826,0 -0.8775,-1.125 -0.8775,-2.5 z m -389.30916,-0.52831 c -8.03007,-1.26418 -21.58208,-6.07785 -28.45209,-10.10617 -7.37772,-4.32602 -22.74811,-19.73131 -27.16208,-27.22374 -13.05094,-22.15317 -14.14752,-51.66522 -2.75995,-74.27791 4.47484,-8.88585 11.46621,-18.13527 17.89355,-23.67276 l 5.11335,-4.40541 -1.56842,-4.89285 c -0.86264,-2.69107 -6.53015,-20.19285 -12.59449,-38.89285 -6.06433,-18.7 -14.4983,-44.8 -18.74215,-58 -4.24385,-13.2 -7.84012,-24.15346 -7.99171,-24.34103 -0.15159,-0.18756 -5.98192,1.52766 -12.9563,3.81162 -6.97438,2.28395 -12.83725,3.99608 -13.0286,3.80474 -0.19135,-0.19135 2.14959,-5.73158 5.20207,-12.31162 12.5267,-27.00295 26.35594,-57.73608 26.35594,-58.5716 0,-1.57504 1.65815,-0.97519 8.1478,2.94755 3.49371,2.11181 14.6772,8.49038 24.8522,14.1746 10.175,5.68423 22.27707,12.50638 26.8935,15.16035 4.61642,2.65396 8.86892,4.82539 9.45,4.82539 2.96407,0 -1.99172,2.21961 -12.3435,5.52842 -6.325,2.0217 -11.83033,3.9827 -12.23407,4.35777 -0.76805,0.71351 0.19917,3.85517 16.19812,52.61381 5.41407,16.5 13.06001,39.94958 16.99097,52.11017 l 7.14721,22.11017 6.43529,0.60093 c 9.6411,0.9003 23.76099,6.02459 32.33562,11.73501 4.0829,2.71905 7.8356,4.94372 8.3395,4.94372 0.9797,0 41.6986,-29.32816 72.7985,-52.43374 5.2311,-3.88644 11.857,-8.64126 14.7242,-10.56626 2.8672,-1.925 5.2247,-3.73861 5.2389,-4.03025 0.014,-0.29163 -7.2867,-5.87683 -16.2242,-12.41154 -8.9375,-6.53471 -18.5,-13.54682 -21.25,-15.58246 -13.3925,-9.91353 -27.7528,-20.05457 -28.0114,-19.78118 -1.2357,1.30647 -10.53,33.14764 -9.8556,33.76428 0.4768,0.43604 4.5825,2.01166 9.1238,3.50138 4.5413,1.48972 8.0247,3.08415 7.741,3.54318 -0.2837,0.45904 -6.0242,4.56554 -12.7568,9.12555 -6.7326,4.56002 -18.4432,12.69497 -26.0237,18.07767 -8.4509,6.00076 -13.93465,9.30445 -14.17555,8.54005 -0.41925,-1.33034 -9.57915,-27.99435 -15.02831,-43.74668 -4.8478,-14.01394 -5.55694,-16.28988 -5.18994,-16.65687 0.18291,-0.18291 4.32352,1.01647 9.20137,2.66529 4.87785,1.64882 9.18085,2.65894 9.56222,2.24472 1.34735,-1.46342 14.81821,-44.74675 14.12061,-45.37115 -0.3893,-0.34843 -14.88274,-10.88183 -32.20774,-23.40755 -17.325,-12.52573 -39.49645,-28.57419 -49.26988,-35.66326 -9.77344,-7.08906 -18.39158,-13.12777 -19.15142,-13.41935 -0.75985,-0.29158 -3.5634,1.02387 -6.23012,2.92323 -42.94836,30.58976 -103.649758,9.87151 -119.243718,-40.69957 -12.442,-40.34931 9.63348,-83.13216 49.89514,-96.69808 13.23737,-4.46025 29.357408,-5.20992 42.301088,-1.96724 9.49786,2.37943 15.9926,4.9644 22.04196,8.77291 2.11367,1.33072 4.45051,2.18638 5.19297,1.90147 0.74246,-0.28491 11.97327,-8.30448 24.95736,-17.82128 12.98409,-9.5168 24.59725,-17.97202 25.80703,-18.78938 1.20977,-0.81737 12.09959,-8.71217 24.19959,-17.54402 12.1,-8.83184 24.11944,-17.56391 26.70984,-19.40459 5.5005,-3.90845 5.7674,-2.84758 -4.06172,-16.14232 -3.83166,-5.18263 -6.8077,-9.58524 -6.61343,-9.78358 0.19427,-0.19834 8.81595,0.62731 19.15925,1.83477 10.3433,1.20747 27.726,3.23967 38.6281,4.51599 10.9021,1.27633 20.0014,2.50002 20.2207,2.71932 0.583,0.58294 -14.924,76.79054 -15.6255,76.79054 -0.3264,0 -3.9287,-4.71632 -8.0053,-10.48072 -4.0766,-5.76439 -7.749,-10.48939 -8.161,-10.5 -0.412,-0.0106 -8.0004,5.26822 -16.863,11.73072 -18.2895,13.33641 -51.58122,37.54518 -60.04359,43.66197 -3.1106,2.24842 -11.14645,8.09046 -17.85743,12.98232 l -12.20178,8.89428 0.65093,3.60572 c 2.76958,15.34175 2.28517,29.39715 -1.42387,41.31433 -1.06226,3.41304 -1.83706,6.27949 -1.72179,6.36987 0.46854,0.36739 28.36245,20.59006 45.20959,32.77628 38.05284,27.52518 46.76114,33.71689 47.02534,33.43583 0.1503,-0.15983 5.3056,-15.8156 11.4561,-34.7906 6.1505,-18.975 11.8213,-36.19789 12.6018,-38.27308 l 1.419,-3.77308 -17.7511,0.27308 -17.7511,0.27308 0,9.7507 c 0,5.36288 -0.1553,9.75038 -0.345,9.75 -0.8981,-0.002 -51.15504,-38.2807 -51.15504,-38.96295 0,-0.71929 50.13224,-39.03502 51.07974,-39.03993 0.2311,-10e-4 0.2779,4.4988 0.1038,10 l -0.3164,10.00218 23.9059,0 c 23.8235,0 23.9094,-0.008 24.9224,-2.25 0.559,-1.2375 6.0609,-17.775 12.2263,-36.75 6.1655,-18.975 14.7378,-45.20869 19.0496,-58.29709 l 7.8397,-23.79709 -3.6555,-2.39112 c -13.6696,-8.94139 -25.8891,-26.62295 -30.7637,-44.5147 -2.7194,-9.98151 -2.5335,-29.1934 0.3803,-39.299179 8.587,-29.781815 31.5125,-50.770569 61.9709,-56.735636 7.8472,-1.53681 25.5953,-0.75944 33.757,1.478552 39.0685,10.712971 64.3058,51.76149 55.9826,91.055893 -0.8155,3.84979 -1.4826,7.07397 -1.4826,7.16483 0,0.0909 2.1375,1.71197 4.75,3.60246 30.2733,21.90684 101.0012,73.20114 101.8359,73.85503 0.7059,0.5529 3.8544,-3.00746 8.9946,-10.17116 6.3102,-8.79425 8.0579,-10.66097 8.6476,-9.23632 0.4065,0.98204 4.0715,18.35633 8.1444,38.60954 5.0645,25.18394 7.0453,36.93767 6.2664,37.18361 -0.6264,0.19779 -17.7889,2.21286 -38.1389,4.47794 -20.35,2.26509 -37.5625,4.30584 -38.25,4.535 -0.6875,0.22917 -1.25,0.19546 -1.25,-0.0749 0,-0.27037 3.5792,-5.39252 7.9539,-11.38256 l 7.9539,-10.89097 -5.2039,-3.93816 c -7.0052,-5.30129 -99.8809,-72.70023 -101.4207,-73.59995 -0.6692,-0.39102 -5.3942,1.31621 -10.5,3.79385 -11.0743,5.37391 -18.0789,7.26701 -30.713,8.30066 l -9.4297,0.77148 -2.8764,9 c -1.582,4.95 -9.3761,28.85663 -17.3203,53.12585 -7.9441,24.26921 -14.4438,44.63171 -14.4438,45.24999 0,0.81339 11.0116,1.12415 39.8333,1.12415 21.9083,0 40.0571,-0.22374 40.3305,-0.4972 0.4509,-0.45087 -9.9125,-32.35839 -10.8737,-33.47845 -0.2244,-0.2616 -4.4196,0.91287 -9.3225,2.60994 -4.903,1.69707 -9.0737,2.92637 -9.2683,2.73177 -0.3405,-0.34054 20.0395,-60.43821 20.7295,-61.12822 0.186,-0.18603 12.3727,8.07299 27.0815,18.35339 l 26.7432,18.69164 -9.3767,3.02839 c -5.1573,1.66561 -9.531,3.14361 -9.7194,3.28443 -0.5394,0.40323 13.9444,43.75633 15.0922,45.17404 0.8119,1.00286 14.084,1.25672 63.1484,1.20784 34.1662,-0.034 62.5881,-0.38041 63.1598,-0.76972 0.5718,-0.38932 1.6303,-2.73285 2.3523,-5.20785 4.4904,-15.39303 18.7281,-32.95521 34.0899,-42.04967 3.575,-2.11647 10.775,-5.31592 16,-7.10988 8.8609,-3.04234 10.408,-3.26373 23,-3.29126 9.92,-0.0217 15.2236,0.44264 20,1.75092 27.4383,7.51571 48.448,28.18588 56.1641,55.25648 2.9447,10.3309 3.1663,29.53299 0.4546,39.38556 -8.701,31.61368 -33.8261,53.87434 -65.9501,58.4314 l -8.1686,1.1588 -1.6284,4.98382 c -0.8956,2.74111 -10.2209,31.05856 -20.7228,62.92768 -10.502,31.86911 -18.9942,58.01851 -18.8717,58.10976 0.1226,0.0913 5.6229,1.84334 12.2229,3.89351 6.6,2.05017 12.3101,4.02577 12.6892,4.39023 0.575,0.5528 -16.9689,10.68124 -61.3636,35.42637 l -6.7524,3.76371 -3.6185,-7.76371 c -10.43,-22.37814 -28.4918,-63.55997 -28.0642,-63.98764 0.2704,-0.27033 5.9992,1.35089 12.7307,3.60271 6.7315,2.25182 12.3356,3.98779 12.4535,3.85771 0.1989,-0.21946 4.4075,-12.94165 31.3715,-94.83336 l 10.0744,-30.59686 -7.3676,-7.48815 c -8.2723,-8.40754 -14.3096,-17.85152 -18.2706,-28.58035 l -2.6722,-7.23778 -57.2008,0 -57.2008,0 2.8017,8.25 c 1.541,4.5375 7.1586,21.75 12.4836,38.25 5.325,16.5 9.7877,30.13044 9.9172,30.28987 0.2319,0.2857 26.1581,-18.12801 27.8695,-19.79394 0.5014,-0.48804 -1.2459,-3.7943 -4.0568,-7.67659 -2.7156,-3.75064 -5.3203,-7.45367 -5.7883,-8.22895 -0.7286,-1.20705 3.8018,-1.30727 31.526,-0.69743 17.8073,0.3917 32.5002,0.8354 32.6508,0.986 0.1505,0.1506 -0.5912,2.93944 -1.6485,6.19743 -1.0572,3.25799 -5.1641,16.49861 -9.1263,29.42361 -3.9623,12.925 -7.5277,24.11282 -7.9232,24.86181 -0.4946,0.93683 -2.4968,-1.16093 -6.4157,-6.7219 l -5.6968,-8.08372 -9.2009,6.77217 c -5.0605,3.7247 -13.7962,10.02013 -19.4127,13.98985 -5.6164,3.96973 -10.0321,7.77211 -9.8127,8.44974 14.0074,43.24902 37.5836,115.13445 38.6944,117.98205 0.9985,2.5599 1.473,2.75 6.8634,2.75 8.2738,0 19.7402,2.40835 28.0106,5.88322 34.1489,14.34784 53.7306,51.04476 46.3753,86.90894 -6.9927,34.09535 -33.2559,58.2214 -67.816,62.29729 -32.6892,3.85525 -63.8863,-13.45116 -78.9312,-43.78659 l -4.1178,-8.30286 -65.7489,0 -65.7489,0 -0.2782,13.59302 -0.2782,13.59302 -29.1717,-26.6571 -29.1716,-26.6571 6.1716,-5.62567 c 3.3944,-3.09412 6.3967,-5.88585 6.6717,-6.20386 0.275,-0.318 5.675,-5.24982 12,-10.95959 6.325,-5.70978 11.95,-10.87671 12.5,-11.48207 0.55,-0.60536 5.6125,-5.31265 11.25,-10.46064 l 10.25,-9.36 0,14.11 0,14.10999 66.3641,0 66.3641,0 1.6933,-4.43383 c 3.8788,-10.15645 14.8798,-23.87991 24.9032,-31.06617 3.0686,-2.2 5.6009,-4.39564 5.6273,-4.87919 0.026,-0.48355 -7.9065,-25.07731 -17.6286,-54.65279 l -17.6767,-53.7736 -3.2541,2.15279 c -3.2017,2.11811 -15.2214,10.79525 -36.8926,26.63316 -6.05,4.4215 -14.2625,10.34091 -18.25,13.15426 -3.9875,2.81334 -7.25,5.22822 -7.25,5.36641 0,0.13818 6.3864,4.86185 14.192,10.49704 l 14.1921,10.2458 1.8076,-2.37194 c 0.9941,-1.30457 2.1638,-2.82194 2.5993,-3.37194 0.4354,-0.55 2.279,-3.16912 4.0967,-5.82028 1.8178,-2.65115 3.4466,-4.67615 3.6197,-4.5 0.1731,0.17616 4.4204,13.71171 9.4384,30.07901 5.018,16.3673 9.3541,30.35926 9.6357,31.09325 0.4177,1.08843 -5.4413,1.4425 -31.7726,1.92009 -17.7565,0.32206 -32.4551,0.41512 -32.6634,0.20679 -0.2083,-0.20833 1.8367,-3.4388 4.5446,-7.17882 2.7079,-3.74002 5.2383,-7.3243 5.6232,-7.96506 0.4439,-0.73927 -5.2413,-5.45523 -15.5568,-12.90454 -8.9411,-6.45673 -17.6105,-12.76563 -19.2654,-14.01977 l -3.0089,-2.28026 -14.4911,10.49228 c -84.6434,61.28598 -89.1456,64.68339 -88.5212,66.79903 4.1883,14.18965 4.7513,18.14085 4.2747,30.00141 -0.9911,24.665 -11.1271,44.75099 -29.8548,59.16161 -7.229,5.5626 -20.34018,11.83871 -28.98476,13.87453 -8.27222,1.94814 -22.82071,2.67638 -30.2142,1.51242 z m 29.63977,-10.56089 c 24.46409,-6.32451 43.81279,-26.10795 50.24919,-51.37826 2.1215,-8.32977 2.1339,-23.48541 0.026,-32.37986 -5.4734,-23.09874 -24.0641,-42.97174 -46.9673,-50.20692 -36.68429,-11.58865 -75.18413,8.42408 -87.63576,45.55424 -3.36716,10.04071 -3.86472,26.15578 -1.14023,36.92972 3.52632,13.94468 8.2611,22.24784 18.60795,32.63187 9.30426,9.33768 17.03997,14.25076 28.06488,17.82448 11.59203,3.75755 26.68218,4.15614 38.79492,1.02473 z M 210.4945,697.38543 c -11.45897,-1.52053 -17.91246,-1.96302 -19.98027,-1.36998 -2.86605,0.82197 -3.48711,0.45298 -10.07407,-5.98512 -3.86085,-3.77361 -9.86686,-9.50501 -13.34669,-12.73646 -8.67409,-8.05495 -8.48627,-8.6562 8.44212,-27.02527 1.58666,-1.72169 4.43256,-5.99669 6.32422,-9.5 9.31299,-17.24741 13.75728,-21.97804 20.39155,-21.7054 2.50959,0.10314 9.51061,-1.48764 17.58845,-3.99645 7.38065,-2.29229 14.04472,-4.1678 14.80903,-4.1678 1.96066,0 16.58833,11.3082 18.60083,14.37981 0.9189,1.4024 1.6708,3.14085 1.6708,3.86322 0,0.72237 1.5016,4.4507 3.337,8.28518 1.8354,3.83449 3.1467,7.53789 2.914,8.22979 -0.2327,0.69189 1.3915,4.56416 3.6092,8.60503 l 4.0323,7.34704 -1.9717,6.57236 c -1.6583,5.52756 -1.8304,7.73641 -1.0826,13.89496 1.2515,10.30625 0.606,11.52066 -6.5335,12.2928 -3.1926,0.34528 -6.6335,1.08531 -7.6464,1.64452 -2.60105,1.43596 -16.12454,3.91122 -20.49631,3.75151 -2.01412,-0.0736 -11.2787,-1.14446 -20.58796,-2.37974 z m 17.59848,-4.23648 c 0.21975,-1.5125 0.21932,-6.28345 -9.6e-4,-10.60211 l -0.4005,-7.85211 -3.08584,0.61717 c -1.6972,0.33944 -3.3332,1.00075 -3.63554,1.46958 -0.30234,0.46882 -3.07973,1.58291 -6.17199,2.47574 -5.21175,1.50481 -17.00277,8.41701 -18.50543,10.84837 -0.44958,0.72743 1.08937,0.84118 4.91451,0.36326 4.26121,-0.5324 6.31691,-0.30907 8.75356,0.95097 2.48208,1.28353 11.15447,3.508 17.09614,4.38516 0.35008,0.0517 0.8163,-1.14353 1.03605,-2.65603 z m 23.82179,-1.58757 c 5.1782,-0.8607 7.584,-1.71158 7.7846,-2.7532 0.1597,-0.82913 -1.305,-5.00821 -3.2548,-9.28685 -1.9499,-4.27863 -3.3204,-8.14303 -3.0457,-8.58755 1.0691,-1.72982 -2.7067,-3.24645 -8.92619,-3.58544 -3.57868,-0.19505 -7.39805,-0.83168 -8.48749,-1.41473 -1.60386,-0.85836 -2.18191,-0.68429 -3.0377,0.91479 -1.10816,2.0706 -2.3328,25.09023 -1.45632,27.3743 0.41911,1.09218 1.58404,1.084 6.71814,-0.0472 3.41612,-0.75266 9.58356,-1.92903 13.70546,-2.61415 z m -57.44245,-5.16243 c 2.40543,-2.475 5.06529,-4.5 5.91081,-4.5 0.84551,0 1.5373,-0.39519 1.5373,-0.87821 0,-0.48301 5.15712,-2.83925 11.46027,-5.23608 10.49973,-3.99262 11.27501,-4.46084 9.25,-5.58636 -1.21565,-0.67566 -2.85569,-1.24443 -3.64455,-1.26391 -0.78885,-0.0195 -3.26385,-0.906 -5.5,-1.97003 -9.92572,-4.72294 -15.996,-7.06541 -18.30934,-7.06541 -1.37212,0 -5.17916,-1.63069 -8.46009,-3.62375 -5.48244,-3.33041 -6.17117,-3.51358 -8.50819,-2.26285 -1.39857,0.7485 -4.15762,3.39168 -6.13123,5.87375 -1.97361,2.48207 -4.55863,5.41285 -5.74449,6.51285 l -2.1561,2 11.85602,11.25 c 6.52081,6.1875 12.35329,11.25 12.96106,11.25 0.60777,0 3.07311,-2.025 5.47853,-4.5 z m 67.92415,-14.67069 c 0.303,-11.38933 -0.9895,-18.34096 -4.0329,-21.69036 -1.0084,-1.1098 -1.5326,-0.34301 -2.8399,4.15391 -2.1033,7.23517 -2.0238,11.70922 0.3011,16.93039 1.0473,2.35221 2.6927,6.19384 3.6564,8.53695 0.9637,2.3431 1.9461,4.06629 2.1831,3.82931 0.237,-0.23699 0.5665,-5.52907 0.7322,-11.7602 z m -36.9869,-19.14804 c -2.99957,-4.4997 -6.75862,-9.08127 -8.35347,-10.18127 -1.59484,-1.1 -6.83907,-4.85242 -11.65384,-8.33872 -4.81477,-3.48629 -9.03037,-5.90755 -9.36798,-5.38057 -0.33762,0.52698 -3.72995,5.50712 -7.53851,11.06698 -6.78575,9.90604 -6.88796,10.14939 -5.09501,12.13057 1.0063,1.11196 2.82266,2.02174 4.03634,2.02174 1.21369,0 5.08144,1.2953 8.59501,2.87844 3.51358,1.58314 9.76332,3.86353 13.88832,5.06753 4.125,1.204 9.975,2.94757 13,3.87461 l 5.5,1.68551 1.22145,-3.32177 c 1.17275,-3.18935 1.00404,-3.64791 -4.23231,-11.50305 z m 26.752,6.31873 c 1.3885,-10.30514 1.8621,-20.49729 1.0099,-21.73485 -0.9342,-1.35654 -13.81187,0.41651 -24.00912,3.30567 l -5.25808,1.48975 5.4557,10.18491 c 4.93959,9.22143 5.8154,10.29872 9.25808,11.38789 2.09131,0.66164 5.82738,1.1273 8.30238,1.0348 l 4.50004,-0.16817 0.7411,-5.5 z M 233.2564,636.53277 c 7.24022,-1.8514 14.40153,-3.65997 15.91403,-4.01905 5.48604,-1.30243 2.29584,-6.45261 -7.4701,-12.05973 -2.59605,-1.49052 -5.14512,-2.44736 -5.66459,-2.12631 -0.51947,0.32105 -1.11094,0.0844 -1.31439,-0.52597 -0.25282,-0.75845 -1.62507,-0.58308 -4.33541,0.55404 -6.2029,2.60243 -16.89564,4.5432 -25.03089,4.5432 -4.15852,0 -7.43462,0.42929 -7.43462,0.97421 0,0.53581 3.94712,3.62824 8.77139,6.87207 4.82426,3.24383 9.37936,6.63043 10.12244,7.52579 1.75006,2.1087 1.14982,2.17216 16.44214,-1.73825 z m 349.16407,86.90447 c 17.7305,-4.60453 34.4557,-17.43664 43.8511,-33.64414 8.0814,-13.94085 10.7988,-33.9552 6.7721,-49.87856 -5.1822,-20.49286 -16.7999,-35.64137 -35.1232,-45.79778 -10.151,-5.62656 -18.9534,-7.65157 -33,-7.5917 -10.7225,0.0457 -13.6377,0.42794 -20.5,2.68799 -29.6635,9.76936 -48.6621,35.791 -48.7118,66.71844 -0.063,39.40266 32.9571,71.15377 72.2118,69.43589 4.675,-0.20459 11.2,-1.07315 14.5,-1.93014 z m -14.5,-13.97362 c -2.475,-0.7152 -10.125,-3.89023 -17,-7.05564 -14.9281,-6.87324 -27.0435,-11.1806 -34.0694,-12.11261 l -5.1454,-0.68257 0.3973,-6.23956 c 0.5316,-8.34938 5.3111,-17.82742 16.0227,-31.77453 15.2616,-19.87144 18.1607,-26.25248 19.4028,-42.70655 0.5755,-7.62292 0.9331,-8.96604 2.287,-8.5892 0.8827,0.24567 3.18,0.75627 5.105,1.13465 1.925,0.37839 10.925,3.50295 20,6.94347 9.075,3.44052 19.875,7.04938 24,8.01969 4.125,0.9703 8.3562,2.49183 9.4028,3.38118 3.3551,2.85105 10.5972,13.27214 10.5972,15.24897 0,4.01261 -6.0663,14.77135 -14.0218,24.86803 -16.0664,20.3907 -17.8731,24.45626 -18.282,41.13843 l -0.2045,8.34336 -2.9959,0.64079 c -4.8663,1.04086 -10.6885,0.83124 -15.4958,-0.55791 z m 15,-8.99231 c 0,-7.41961 1.8167,-19.88957 3.4764,-23.86175 1.7469,-4.18083 13.3189,-19.70428 19.5389,-26.21061 4.2298,-4.42453 8.9847,-11.95715 8.9847,-14.2334 0,-0.44718 -1.7658,-0.88281 -3.9238,-0.96805 -3.9749,-0.157 -10.8799,-2.16928 -32.5762,-9.49342 -14.1478,-4.77593 -17.5,-6.36045 -17.5,-8.27179 0,-2.62731 1.7757,-2.53966 8.76,0.43242 5.6226,2.39266 30.5886,11.03424 31.8785,11.03424 0.4567,0 3.4541,-7.24513 3.1246,-7.55253 -0.1447,-0.135 -4.9881,-1.47678 -10.7631,-2.98173 -5.775,-1.50494 -12.075,-3.52566 -14,-4.49048 -4.1278,-2.06884 -22.6912,-7.97526 -25.0657,-7.97526 -1.2883,0 -1.7734,1.3557 -2.2366,6.25 -1.0445,11.03814 -4.1591,18.92672 -10.9836,27.81951 -3.4178,4.45356 -9.0428,11.77233 -12.5,16.26393 -7.9148,10.28285 -12.1638,18.77842 -12.8846,25.76213 l -0.5604,5.4298 8.6116,1.17428 c 7.29,0.99406 10.9096,2.26546 23.5856,8.28437 15.7179,7.46332 19.8732,8.7271 29.2837,8.90641 l 5.75,0.10957 0,-5.42764 z m -25.5,-8.78243 c -7.15,-2.18407 -17.3875,-5.31524 -22.75,-6.95814 -5.3625,-1.6429 -9.7432,-3.28965 -9.7347,-3.65944 0.079,-3.45048 2.0084,-3.17699 24.826,3.51823 21.3641,6.26872 23.1587,6.97019 23.1587,9.05236 0,2.81587 0.1904,2.83986 -15.5,-1.95301 z m 1.5305,-11.83401 c -18.1258,-5.29916 -29.0338,-8.97886 -29.0152,-9.78804 0.01,-0.36733 0.3942,-1.26558 0.8573,-1.99611 0.6714,-1.05897 3.7599,-0.40838 15.2347,3.20916 7.916,2.49557 18.0959,5.50259 22.6222,6.68226 7.4994,1.95457 8.1395,2.31306 7.2148,4.04083 -0.5581,1.04279 -1.5614,1.87208 -2.2295,1.84286 -0.6682,-0.0292 -7.2761,-1.82515 -14.6843,-3.99096 z m 7.4695,-10.04406 c -13.8832,-3.70751 -29.5048,-8.87025 -29.4847,-9.74432 0.01,-0.36715 0.383,-1.24707 0.8324,-1.95539 0.6391,-1.00731 3.5221,-0.43213 13.2347,2.64041 6.8296,2.16054 16.6056,4.93654 21.7243,6.16889 7.1752,1.72747 9.1792,2.5729 8.75,3.69138 -0.3062,0.79791 -0.5567,1.63894 -0.5567,1.86896 0,0.88055 -3.8805,0.16603 -14.5,-2.66993 z m 6,-10.37548 c -12.8293,-3.3451 -27.192,-7.89496 -28.2443,-8.94732 -0.2974,-0.2974 -10e-4,-1.19108 0.6587,-1.98596 1.0355,-1.24771 2.1825,-1.10743 8.3925,1.0265 3.9562,1.35944 13.4931,4.07266 21.1931,6.02937 7.7,1.95672 14.1766,3.72305 14.3925,3.92518 0.4983,0.46665 -1.9253,3.42836 -2.765,3.37885 -0.3451,-0.0203 -6.4775,-1.56232 -13.6275,-3.42662 z m 7.6068,-9.54743 c -13.0049,-3.33314 -27.1751,-7.84085 -28.5145,-9.07075 -0.5385,-0.4945 -0.4496,-1.38522 0.2185,-2.19025 0.9337,-1.12502 2.7972,-0.79706 10.9076,1.9196 5.3799,1.80202 14.9566,4.51005 21.2816,6.01782 6.325,1.50778 11.623,2.81048 11.7735,2.89489 0.1504,0.0844 -0.01,0.89289 -0.357,1.79661 -0.8303,2.16387 -1.9042,2.06792 -15.3097,-1.36792 z m 4.8932,-10.0406 c -12.2161,-3.37145 -28.0069,-8.9131 -27.9847,-9.82098 0.01,-0.34505 0.4054,-1.24315 0.8822,-1.99577 0.7061,-1.11472 2.6961,-0.71912 10.7346,2.13404 8.8969,3.15782 16.7882,5.51892 29.076,8.69963 3.0558,0.79099 4.0534,1.49257 3.643,2.562 -0.7986,2.08107 -4.3226,1.74077 -16.3511,-1.57892 z m 28.6801,-10.58345 c -1.5324,-2.94619 -6.4191,-8.0352 -6.9959,-7.28551 -0.8946,1.16279 -2.7444,9.19376 -2.235,9.70321 0.9716,0.97153 8.987,1.90239 9.8859,1.14806 0.4593,-0.38547 0.1645,-1.99006 -0.655,-3.56576 z m -263.6144,40.59992 c 1.1821,-0.63262 1.9351,-2.09093 1.9364,-3.75 0,-2.7134 -0.001,-2.71464 -6.5992,-2.3751 l -6.6013,0.33971 0.6895,-3.33971 c 0.3792,-1.83685 1.3558,-5.70222 2.1701,-8.58972 l 1.4807,-5.25 5.229,0 c 5.4767,0 7.6291,-1.18494 7.6291,-4.2 0,-1.59216 -0.9815,-1.8 -8.5,-1.8 -6.8524,0 -8.849,0.34897 -10.3003,1.80029 -2.1269,2.12682 -4.803,10.34786 -6.0484,18.58058 -1.2361,8.17151 0.2559,9.61913 9.9144,9.61913 3.8862,0 7.9362,-0.46583 9,-1.03518 z m 22.9604,-1.47833 c 3.5626,-1.84229 6.4348,-5.8596 7.8548,-10.98649 3.3579,-12.12339 -0.8417,-17.55353 -12.5547,-16.23331 -5.5391,0.62434 -9.0329,3.08249 -11.7081,8.23737 -2.3711,4.56895 -3.3284,14.30035 -1.7051,17.3334 2.1898,4.09175 11.7128,4.95873 18.1131,1.64903 z m -9.4038,-4.20041 c -1.6278,-0.41778 -1.7989,-1.14715 -1.2857,-5.48051 0.3256,-2.74923 1.4208,-6.41767 2.4337,-8.15208 1.5016,-2.57103 2.4779,-3.15349 5.2857,-3.15349 2.7735,0 3.5042,0.42293 3.7534,2.17254 0.5069,3.55992 -1.7794,10.3883 -4.3335,12.94241 -2.4441,2.44409 -2.6324,2.49786 -5.8536,1.67113 z m 31.6005,4.96392 c 2.3613,-2.69593 16.7772,-26.10414 16.7772,-27.24245 0,-0.55415 -1.6875,-1.00029 -3.75,-0.99142 -3.6389,0.0157 -3.8982,0.26677 -8.75,8.47351 -2.75,4.65156 -5.3375,8.4693 -5.75,8.48387 -0.4125,0.0146 -0.75,-3.79851 -0.75,-8.47351 l 0,-8.5 -4.25,-10e-4 -4.25,-0.001 0.5582,13.78655 c 0.3071,7.58261 0.8961,14.33319 1.309,15.00129 1.1339,1.83462 7.0955,1.47428 8.8556,-0.53526 z m 33.742,-0.18426 c 0.5693,-1.06384 1.0352,-2.91894 1.0352,-4.12244 0,-1.7469 -0.2783,-1.95726 -1.3798,-1.04312 -1.7454,1.44858 -11.6568,1.18293 -11.5206,-0.30878 0.4839,-5.29808 1.3689,-6.08205 7.4403,-6.5914 5.6589,-0.47473 5.9764,-0.64291 6.284,-3.32806 0.3212,-2.80392 0.2807,-2.82577 -4.7399,-2.5593 -2.7851,0.14782 -5.1503,0.0704 -5.2559,-0.17194 -0.1057,-0.24238 0.073,-1.4532 0.3962,-2.6907 0.529,-2.0228 1.2037,-2.25 6.682,-2.25 3.3515,0 6.0937,-0.4132 6.0937,-0.91821 0,-0.50502 0.2731,-1.63002 0.6069,-2.5 0.5296,-1.38 -0.7142,-1.58055 -9.75,-1.57204 l -10.3569,0.01 -3.3755,13.88267 c -1.8566,7.63548 -3.0675,14.38109 -2.691,14.99026 0.4221,0.68307 4.2894,1.10757 10.0903,1.10757 8.2758,0 9.5302,-0.23238 10.441,-1.93426 z m 12.0352,-0.12292 c 0,-3.2257 2.1493,-10.94282 3.0477,-10.94282 0.4457,0 1.562,2.5875 2.4807,5.75 0.9187,3.1625 2.1882,6.08061 2.821,6.48469 2.2714,1.45036 6.5664,0.79108 7.6154,-1.16895 1.4233,-2.65956 1.2964,-4.06574 -0.367,-4.06574 -1.6723,0 -4.1578,-6.31335 -2.6795,-6.80611 5.5324,-1.84415 8.6946,-10.0833 5.6521,-14.72679 -1.5408,-2.35154 -2.0867,-2.4671 -11.6525,-2.4671 -5.7843,0 -9.7974,0.38604 -9.4728,0.91123 0.3097,0.50118 -1.0258,6.87963 -2.9679,14.17434 -3.8554,14.48105 -3.796,14.87052 2.2728,14.89912 2.6184,0.0123 3.25,-0.38447 3.25,-2.04187 z m 4,-17.70125 c 0,-3.03428 2.015,-5.12058 4.7432,-4.91089 2.8414,0.2184 3.886,2.18878 2.3907,4.50957 -1.1955,1.85551 -7.1339,2.18957 -7.1339,0.40132 z m 32.8549,18.33343 c 3.3658,-1.74052 5.1451,-5.3934 5.1451,-10.56304 0,-4.22024 -0.4807,-4.74087 -6.4995,-7.04043 -5.7267,-2.18796 -5.2632,-4.39743 0.9995,-4.76497 4.9361,-0.28969 7.5,-1.96398 7.5,-4.89769 0,-0.96722 -2.023,-1.30487 -7.75,-1.29356 -4.2625,0.008 -8.2261,0.34592 -8.808,0.75 -2.4288,1.68664 -4.442,5.91739 -4.442,9.33475 0,4.02978 1.5608,5.83364 6.4019,7.39851 2.0976,0.67803 3.0981,1.64731 3.0981,3.00143 0,1.64199 -0.9743,2.16517 -5.4425,2.92269 -3.9832,0.6753 -5.5472,0.60827 -5.8333,-0.25 -0.215,-0.64498 -0.7677,-1.17269 -1.2281,-1.17269 -1.1002,0 -2.3258,5.65757 -1.5112,6.9756 0.9682,1.56665 15.1644,1.25707 18.37,-0.4006 z m -169.8549,-68.96458 c 27.5967,-19.99216 59.0916,-42.67168 66.7055,-48.03488 3.9631,-2.79155 7.2256,-5.37049 7.25,-5.73099 0.024,-0.36049 -4.0066,-3.61765 -8.958,-7.23813 -8.1092,-5.92953 -9.1758,-6.43955 -10.75,-5.14012 -1.723,1.42234 -11.8528,8.75426 -44.2475,32.02635 -16.6005,11.92564 -21.8778,15.74224 -32,23.14273 -3.025,2.21162 -7.8625,5.71173 -10.75,7.77804 -2.8875,2.0663 -5.25,4.00155 -5.25,4.30055 0,0.29899 1.4689,2.17317 3.2643,4.16483 1.7954,1.99166 4.6079,5.6981 6.25,8.23654 l 2.9857,4.61533 4.5,-3.08351 c 2.475,-1.69594 11.925,-8.46247 21,-15.03674 z m 161,-14.69171 c 0,-0.9547 -2.8104,-10.44055 -8.6751,-29.2814 l -1.8249,-5.86269 -3.3198,4.62333 c -2.2176,3.08839 -3.7481,4.3708 -4.6099,3.86269 -1.4351,-0.84621 -22.1682,-15.73663 -37.8757,-27.20217 -14.2566,-10.40649 -38.3309,-27.7945 -50.1946,-36.2538 -5.5,-3.92169 -13.2901,-9.57807 -17.3113,-12.56971 -21.5392,-16.02456 -43.5821,-31.23634 -44.2464,-30.53438 -0.4161,0.43968 -1.218,2.37442 -1.782,4.29942 -0.564,1.925 -1.9187,6.32599 -3.0103,9.77997 l -1.9848,6.27997 5.1674,3.79922 c 7.6425,5.619 16.4259,11.97212 24.766,17.91345 13.9399,9.93053 65.3933,47.06483 76.9014,55.50025 6.325,4.63623 17.35,12.62206 24.5,17.74628 7.15,5.12422 13.1752,9.45394 13.3894,9.6216 0.2142,0.16765 -0.7177,1.77957 -2.0709,3.58204 -1.3531,1.80247 -2.7924,3.83972 -3.1984,4.52722 -0.5794,0.9811 3.1466,1.25 17.3208,1.25 12.2778,0 18.0591,-0.34615 18.0591,-1.08129 z M 436.88277,573.068 c -6.2673,-2.95689 -28.1008,-19.13603 -27.3855,-20.29332 1.0334,-1.67219 4.3355,-0.86129 7.1216,1.74888 4.666,4.3713 15.6501,11.3772 17.7909,11.34739 1.5192,-0.0212 0.2387,-1.70399 -5.2393,-6.88523 -3.9875,-3.77147 -7.25,-7.34303 -7.25,-7.93681 0,-1.46262 3.3478,-3.15521 6.1842,-3.1266 1.2737,0.0128 4.4521,1.25035 7.0631,2.75 6.0114,3.45262 21.6326,14.51628 21.7011,15.36965 0.1921,2.39535 -3.9045,0.87811 -11.4003,-4.22228 -13.0008,-8.84611 -14.2788,-8.05854 -3.4362,2.11752 6.4221,6.02728 7.0007,6.8827 5.9648,8.81826 -1.4058,2.62693 -5.9387,2.7544 -11.1144,0.31254 z m -21.8488,-32.74352 -5.9916,-4.35975 -5.7175,1.96711 c -3.1447,1.08191 -6.5096,1.96711 -7.4777,1.96711 -0.968,0 -1.9392,0.53725 -2.158,1.1939 -0.2475,0.74228 -2.7297,-0.44167 -6.5621,-3.12995 -3.3902,-2.37812 -5.9453,-4.67778 -5.678,-5.11036 0.2674,-0.43258 3.8578,-1.58138 7.9787,-2.55289 4.121,-0.97151 7.4927,-2.12215 7.4927,-2.55698 0,-0.43482 -2.2481,-2.3045 -4.9957,-4.15485 -4.8545,-3.26922 -5.4528,-4.68887 -1.976,-4.68887 0.9322,0 8.8236,5.175 17.5365,11.5 8.7129,6.325 16.2001,11.5 16.6384,11.5 1.6292,0 0.7268,1.78503 -1.1507,2.27601 -1.2704,0.33223 -4.0304,-1.00636 -7.939,-3.85048 z m -44.3558,-14.29865 c -7.0292,-5.50114 -7.2692,-5.80566 -5.8882,-7.4697 0.9715,-1.17052 -0.084,-2.3684 -5.863,-6.65235 -6.7422,-4.9982 -13.5706,-7.81252 -14.2211,-5.86119 -0.3282,0.9845 -10.7071,-6.14998 -10.756,-7.39364 -0.044,-1.12836 2.5012,-0.94131 17.9854,1.32164 7.7964,1.1394 14.4184,1.82843 14.7157,1.53117 0.4802,-0.4802 7.454,4.08606 14.1787,9.28387 l 2.4093,1.86223 -4.2007,7.65397 c -2.3104,4.20968 -3.9305,8.09117 -3.6003,8.62554 0.8907,1.44117 0.4318,1.16142 -4.7598,-2.90154 z m -0.5617,-17.24798 c -0.7926,-0.70724 -11.196,-1.99566 -11.196,-1.38657 0,0.21895 1.9125,1.73947 4.25,3.37893 l 4.25,2.98085 1.696,-2.17606 c 0.9328,-1.19683 1.3828,-2.45555 1,-2.79715 z m -45.8779,-16.65648 c -8.6199,-5.76752 -25.3181,-18.49441 -25.3181,-19.29669 0,-0.47379 3.9375,-2.0533 8.75,-3.51003 4.8125,-1.45672 9.2281,-3.03124 9.8124,-3.49893 0.6415,-0.51347 2.4243,0.24873 4.5,1.92394 1.8907,1.52585 8.2711,6.27248 14.1788,10.54807 5.9076,4.27558 10.9967,8.18721 11.309,8.6925 0.3123,0.5053 -0.4713,0.909 -1.7412,0.89711 -1.27,-0.0119 -6.2402,-2.96282 -11.0448,-6.55763 -6.6466,-4.97288 -9.1256,-6.31791 -10.3656,-5.62398 -1.3254,0.74173 -0.217,1.91971 5.935,6.30764 4.1606,2.96757 7.5876,5.68494 7.6156,6.03859 0.1343,1.7003 -3.465,1.73088 -5.3547,0.0455 -3.9776,-3.5475 -14.186,-10.18845 -15.638,-10.17319 -0.8011,0.008 -2.0418,0.38654 -2.7571,0.84026 -0.921,0.58419 0.7964,2.35492 5.8848,6.06755 3.952,2.88344 8.2497,5.72755 9.5506,6.32026 2.8689,1.30716 3.0184,2.35252 0.4333,3.02855 -1.1124,0.29091 -3.5514,-0.57843 -5.75,-2.04951 z m 215.1819,90.82427 c 2.75,-0.96135 6.6875,-2.06053 8.75,-2.44262 2.0625,-0.38208 3.75,-0.97246 3.75,-1.31194 0,-0.33949 -5.2146,-16.6316 -11.5879,-36.20469 -18.0743,-55.50816 -21.1676,-65.06849 -23.567,-72.83744 -1.2316,-3.9875 -2.598,-7.25 -3.0366,-7.25 -1.0382,0 -17.2145,11.95986 -17.6147,13.02338 -0.1684,0.44747 6.8893,22.78777 15.6837,49.6451 8.7945,26.85734 16.7816,51.43384 17.7492,54.61445 1.365,4.48702 2.1082,5.64049 3.3163,5.14731 0.8563,-0.34959 3.807,-1.42219 6.557,-2.38355 z m -351.51554,-8.53267 c 1.33413,-1.20736 2.0155,-3.08443 2.0155,-5.55238 0,-2.82812 0.46094,-3.84892 1.90899,-4.22759 1.51271,-0.39558 2.25641,0.41053 3.5827,3.88337 1.33915,3.5065 2.15694,4.38258 4.09102,4.38258 2.7615,0 3.07465,-1.7389 1.27877,-7.10078 -2.45333,-7.32477 -7.07988,-9.46206 -14.71828,-6.79929 -3.08571,1.07568 -3.72959,2.24147 -4.36325,7.90007 -0.44939,4.01312 -3.91382,3.24978 -6.16398,-1.35815 -1.57158,-3.21833 -1.6545,-4.00351 -0.5,-4.73469 0.76122,-0.48209 0.93403,-0.93324 0.38403,-1.00254 -2.07545,-0.26151 -6.02721,0.29323 -6.71065,0.94204 -1.14059,1.0828 2.24362,11.43379 4.57698,13.99921 1.84336,2.02669 2.84589,2.28779 7.36817,1.91901 3.16291,-0.25792 6.03215,-1.14872 7.25,-2.25086 z m -16.3651,-16.11015 c 2.11084,-0.56653 2.11185,-0.58446 0.25,-4.43804 -2.39082,-4.94843 -2.35148,-5.60338 0.3806,-6.33554 3.9234,-1.05143 4.44085,-0.7283 6.19685,3.86971 1.41122,3.69523 2.17117,4.5 4.24936,4.5 2.22026,0 2.46698,-0.33743 2.01078,-2.75 -0.28601,-1.5125 -0.84894,-3.79836 -1.25097,-5.07969 -0.65938,-2.10156 -0.45577,-2.2974 2.07939,-2 2.31074,0.27108 3.06109,1.08523 4.2208,4.57969 1.22998,3.70618 1.78366,4.25 4.32712,4.25 1.60417,0 2.89918,-0.1125 2.87781,-0.25 -0.0214,-0.1375 -1.30009,-3.85 -2.8416,-8.25 -1.9273,-5.50118 -3.24266,-7.89081 -4.21114,-7.65042 -0.77462,0.19227 -6.3584,0.77979 -12.4084,1.30559 -13.86532,1.20502 -15.5,1.55375 -15.5,3.30667 0,2.74908 5.24413,15.53801 6.36586,15.52451 0.62378,-0.008 2.08787,-0.26963 3.25354,-0.58248 z m 444.72084,-15.887 c 0.8157,-0.81572 3.162,-6.52134 5.2138,-12.67916 l 3.7307,-11.19602 -2.6981,-2.32085 c -3.14,-2.70091 -5.0696,-3.02185 -4.1766,-0.69467 0.9701,2.52817 -3.5076,15.37479 -5.3569,15.36879 -1.8178,-0.006 -10.8902,-6.71937 -12.4253,-9.19453 -0.786,-1.26752 -0.4621,-3.53739 1.2744,-8.92908 2.2318,-6.92943 2.2535,-7.28433 0.522,-8.55043 -1.6474,-1.20457 -3.4242,-1.7423 -3.4242,-1.03626 0,0.15656 -0.9108,2.87598 -2.024,6.04316 -4.2195,12.00533 -5.0534,16.62182 -3.5335,19.5611 2.1566,4.17037 16.6285,14.94849 20.236,15.07104 0.6482,0.022 1.846,-0.62737 2.6617,-1.44309 z m -349.332,-9.52967 c 7.6623,-5.21796 13.9451,-9.78853 13.9616,-10.15683 0.017,-0.3683 -2.2198,-1.41697 -4.9698,-2.33037 -2.75,-0.9134 -5,-1.74437 -5,-1.8466 0,-0.10223 2.1914,-6.92856 4.8699,-15.16963 2.6785,-8.24108 9.0221,-27.80877 14.0969,-43.48377 5.0749,-15.675 13.2082,-40.65 18.0741,-55.5 16.0117,-48.86548 19.9591,-61.09464 19.9591,-61.83459 0,-0.402 -5.0625,-0.60367 -11.25,-0.44816 l -11.25,0.28275 -8.8251,27 c -4.8538,14.85 -11.9686,36.675 -15.8107,48.5 -3.8422,11.825 -12.1334,37.17921 -18.425,56.34268 -6.2916,19.16347 -11.4392,35.45854 -11.4392,36.21126 0,1.16953 9.7831,4.99627 10.6238,4.15558 0.156,-0.15603 -1.4179,-2.97484 -3.4976,-6.26402 -3.1913,-5.04718 -3.6392,-6.40672 -2.8704,-8.71292 0.5009,-1.50292 1.2108,-2.72196 1.5775,-2.70898 0.3667,0.013 3.2655,4.35935 6.4419,9.6586 5.4692,9.12455 5.7156,9.81566 4.6498,13.04495 -0.619,1.87547 -1.6428,3.21723 -2.2752,2.98169 -0.6324,-0.23554 -4.6415,-1.27888 -8.909,-2.31854 -4.2676,-1.03967 -7.59184,-2.3403 -7.38726,-2.8903 1.86946,-5.02601 1.84446,-5.07232 -3.6829,-6.81468 -2.94056,-0.92692 -5.59417,-1.68532 -5.89691,-1.68532 -0.50851,0 2.33877,8.6219 8.84843,26.79415 1.43714,4.01178 3.02724,7.15602 3.53374,6.9872 0.5065,-0.16882 7.19,-4.57618 14.8523,-9.79415 z m -2.195,-34.43863 c -5.2936,-8.81026 -5.6124,-9.69215 -4.699,-13 0.6337,-2.29536 1.5823,-3.54857 2.6859,-3.54857 1.9983,0 15.2235,3.6903 15.9969,4.46367 0.2903,0.29033 0.001,1.68395 -0.6427,3.09692 -0.8813,1.93435 -1.6626,2.41286 -3.1624,1.93684 -1.0956,-0.34771 -1.9919,-0.43184 -1.9919,-0.18694 0,0.24489 -0.6547,2.01216 -1.4549,3.92726 -1.3411,3.20959 -1.3024,3.64563 0.4937,5.57356 1.5541,1.66816 1.7524,2.60749 0.9796,4.64013 -0.5329,1.40171 -1.3194,2.54856 -1.7477,2.54856 -0.4283,0 -3.3342,-4.25314 -6.4575,-9.45143 z m 4.1868,-7.60759 c 0,-1.27431 -0.687,-1.94098 -2,-1.94098 -2.3279,0 -2.4228,0.35014 -0.7999,2.94889 1.4075,2.25371 2.7999,1.75247 2.7999,-1.00791 z m 2.8708,-11.4218 c -3.646,-2.98517 -6.9085,-5.14818 -7.25,-4.80671 -2.1623,2.16236 3.028,-13.58131 5.2523,-15.93139 1.3742,-1.45199 2.0104,-1.52739 4.0966,-0.48553 1.3584,0.67836 3.1403,2.42796 3.9598,3.88802 1.2847,2.28883 1.3048,3.37749 0.1456,7.90047 -1.2285,4.79326 -1.1908,5.35824 0.4375,6.54886 0.9801,0.71667 2.1657,1.06589 2.6347,0.77605 0.4689,-0.28984 0.8527,-0.26097 0.8527,0.0641 0,0.86294 -2.8443,7.53165 -3.199,7.50028 -0.1656,-0.0147 -3.2842,-2.46904 -6.9302,-5.4542 z m 2.6665,-9.63671 c 0.459,-1.44632 0.037,-2.75285 -1.3323,-4.12184 l -2.0043,-2.0043 -1.1801,2.20502 c -0.969,1.81068 -0.8698,2.54783 0.5546,4.12184 2.2297,2.46371 3.1309,2.41805 3.9621,-0.20072 z m 1.9286,-12.21657 c -2.8362,-2.83617 -3.4659,-4.21667 -3.4659,-7.59802 0,-4.88184 1.9155,-9.84798 4.7836,-12.40197 1.969,-1.75339 2.2204,-1.75781 5.7129,-0.10052 7.0812,3.36026 9.2311,10.81553 5.3159,18.43461 -1.9406,3.77639 -2.8405,4.5508 -5.5965,4.8159 -2.6417,0.2541 -3.9622,-0.36213 -6.75,-3.15 z m 9.9269,-4.92453 c 1.4454,-2.29581 -0.871,-6.59861 -4.6925,-8.71681 -2.442,-1.35356 -2.8582,-1.35631 -3.7101,-0.0246 -1.678,2.62288 -1.0715,5.64599 1.6856,8.4031 2.9349,2.93496 5.0162,3.03978 6.717,0.33827 z m 0.1072,-16.77238 c -3.3,-2.69673 -6.5316,-4.91796 -7.1813,-4.93607 -1.5347,-0.0428 3.2105,-14.39735 5.3449,-16.16874 2.292,-1.90222 6.6797,0.8811 7.3653,4.67219 0.4108,2.2717 0.9953,2.88193 2.5035,2.61368 1.0821,-0.19247 2.2044,-0.73122 2.4939,-1.19721 0.2896,-0.466 1.1319,-0.47307 1.8719,-0.0157 1.0004,0.61825 1.1044,1.56665 0.4057,3.69722 -0.749,2.28385 -1.7889,3.05691 -5.1219,3.80771 -2.3001,0.51813 -4.182,1.28019 -4.182,1.69347 0,0.41327 1.35,1.54886 3,2.52354 1.65,0.97468 3,2.09583 3,2.49144 0,1.59656 -2.0014,5.8453 -2.7253,5.78557 -0.4261,-0.0352 -3.4747,-2.27035 -6.7747,-4.96709 z m 1.4846,-12.71899 c 0.021,-3.00665 -2.3824,-2.86715 -3.789,0.21997 -0.932,2.04545 -0.8327,2.63379 0.5779,3.42319 1.9981,1.11817 3.1879,-0.23175 3.2111,-3.64316 z m 4.7696,-9.54978 c -5.8434,-4.50469 -6.6699,-5.5346 -6.1792,-7.70022 0.3116,-1.375 0.8789,-2.82179 1.2608,-3.21509 0.3819,-0.3933 3.5575,1.50085 7.0569,4.20923 3.4994,2.70837 6.8227,5.07766 7.3849,5.26509 1.219,0.40633 -0.3864,5.9711 -1.8401,6.37849 -0.5157,0.1445 -3.9731,-2.07737 -7.6833,-4.9375 z m 9.518,-4.90784 c -0.5737,-0.71081 -2.076,-3.76738 -3.3386,-6.79238 -1.2626,-3.025 -2.8364,-6.31239 -3.4975,-7.30531 -1.0989,-1.65055 -1.2932,-1.54339 -2.267,1.25 -0.9189,2.63577 -4.1691,4.43567 -4.1691,2.30872 0,-2.4685 5.3771,-16.29436 6.227,-16.01107 0.566,0.18869 2.7178,4.08039 4.7816,8.64822 2.0638,4.56783 3.9903,7.92018 4.2811,7.44967 0.2908,-0.4705 0.8485,-2.56041 1.2395,-4.64424 0.6641,-3.53994 0.8263,-3.68421 2.47,-2.19666 1.6747,1.51557 1.6419,1.96258 -0.6811,9.2964 -2.7237,8.59856 -3.5295,9.87558 -5.0459,7.99665 z m 0.7278,-24.82444 c -3.575,-2.72502 -6.8066,-4.95759 -7.1813,-4.96126 -0.6056,-0.006 3.9039,-14.85805 4.8398,-15.94001 0.2061,-0.23834 0.8717,0.0636 1.4791,0.67094 0.8057,0.8057 0.665,2.3934 -0.5203,5.87208 -1.2431,3.64815 -1.3414,4.94282 -0.4187,5.51308 1.7998,1.11236 2.6524,0.18803 3.3739,-3.65785 0.6787,-3.61791 1.0966,-3.96162 3.1964,-2.62891 1.0134,0.64324 0.962,1.67518 -0.2554,5.12572 -1.1433,3.2404 -1.2424,4.66003 -0.3965,5.6793 0.6203,0.74743 1.4545,1.35897 1.8537,1.35897 1.0322,0 4.0852,-8.10049 3.444,-9.13797 -0.9043,-1.4632 1.2674,-0.95 2.5574,0.60435 0.972,1.17124 0.7325,2.91976 -1.1901,8.6875 -1.3239,3.97161 -2.8289,7.34431 -3.3445,7.49488 -0.5157,0.15057 -3.8625,-1.95579 -7.4375,-4.68082 z m 11.3302,-14.03774 c -0.7931,-0.79306 -0.6981,-1.89017 0.3448,-3.98071 1.7497,-3.5072 2.1912,-8.102 0.825,-8.5834 -0.55,-0.19379 -1.7711,1.00238 -2.7135,2.65814 -2.2129,3.88796 -4.204,4.58749 -7.2943,2.56267 -2.9987,-1.96487 -3.2322,-5.44878 -0.8527,-12.72374 1.4062,-4.29918 1.839,-4.81315 3.0411,-3.61109 1.0749,1.0749 1.1589,2.03974 0.3605,4.13984 -1.2803,3.36724 -1.3489,6.60809 -0.1399,6.60809 0.4957,0 1.8305,-1.575 2.9663,-3.5 2.2533,-3.81916 4.4584,-4.36089 7.9099,-1.9433 2.704,1.89393 2.8167,5.65987 0.3999,13.36382 -1.7639,5.62266 -2.9786,6.87818 -4.8471,5.00968 z m -138.4624,166.9222 c 6.94769,-0.61597 12.97557,-1.42565 13.39529,-1.79929 0.41971,-0.37365 0.26399,-2.11118 -0.34607,-3.86118 -0.91967,-2.63816 -1.51993,-3.09725 -3.51312,-2.68687 -1.32217,0.27222 -3.49585,0.72021 -4.8304,0.99553 -1.9334,0.39888 -2.72454,-0.0969 -3.89339,-2.43993 -0.80682,-1.6173 -1.21491,-3.19257 -0.90688,-3.5006 0.30804,-0.30803 2.48351,-0.56006 4.83438,-0.56006 5.0796,0 5.72604,-0.74433 4.27114,-4.91785 -0.76924,-2.20666 -1.58774,-3.00291 -2.73802,-2.66362 -0.90242,0.26618 -7.26577,1.00026 -14.14077,1.6313 -6.875,0.63103 -12.84341,1.46888 -13.26313,1.86188 -0.41971,0.393 -0.29077,2.06954 0.28656,3.72565 l 1.04967,3.0111 6.57361,-0.88074 c 3.61548,-0.4844 6.74435,-0.70999 6.95303,-0.50131 0.20869,0.20868 0.64963,1.73046 0.97989,3.38174 l 0.60046,3.00231 -5.8185,0.2354 c -3.20017,0.12947 -6.10884,0.70518 -6.4637,1.27936 -1.05708,1.71038 1.37508,6.94401 2.94673,6.34091 0.76508,-0.29359 7.07553,-1.03777 14.02322,-1.65373 z m 263.4294,-31.03593 c 12.3641,-8.97406 29.3573,-21.26647 37.7628,-27.31647 8.4054,-6.05 19.593,-14.16441 24.8613,-18.03202 5.2682,-3.86762 13.3699,-9.67044 18.0037,-12.89517 4.6338,-3.22472 13.1838,-9.37757 19,-13.67299 16.0994,-11.88976 18.9663,-13.92318 20.3241,-14.41522 0.688,-0.2493 2.5367,1.36633 4.1083,3.5903 1.5716,2.22396 3.1466,3.76188 3.5,3.41759 0.3534,-0.34428 2.932,-8.13344 5.7302,-17.30923 l 5.0877,-16.68326 -3.0877,-0.23213 c -5.5416,-0.41662 -33.5902,-0.77682 -33.5889,-0.43135 7e-4,0.18509 1.427,2.32184 3.1696,4.74834 1.7426,2.4265 2.9801,4.57098 2.75,4.7655 -0.2301,0.19453 -9.1369,6.60778 -19.7928,14.25167 -10.656,7.64388 -25.2949,18.17297 -32.5309,23.39797 -7.236,5.225 -21.4675,15.49227 -31.6255,22.81616 -56.2943,40.58793 -65.105,47.06497 -65.0725,47.8372 0.058,1.37116 16.4943,13.26792 17.7619,12.85603 0.6372,-0.20704 11.2746,-7.71885 23.6387,-16.69292 z m -25.6454,9.57962 c -2.8256,-5.92537 -3.2649,-12.05978 -1.0403,-14.52733 2.9991,-3.32654 13.1492,-10.77464 13.7986,-10.12527 1.446,1.44604 0.268,3.3634 -3.9101,6.36389 -2.9703,2.13309 -4.5,3.97315 -4.5,5.41292 0,3.51559 2.0815,8.4797 3.5557,8.4797 0.748,0 3.1932,-1.74385 5.4337,-3.87522 3.6155,-3.43927 4.1783,-3.67981 5.0034,-2.13814 0.6159,1.15082 0.5209,2.25215 -0.2816,3.26325 -1.7998,2.26769 -13.7429,10.75011 -15.136,10.75011 -0.6627,0 -1.9782,-1.62176 -2.9234,-3.60391 z m 20.8682,-10.64609 c -0.2294,-0.6875 -1.1759,-4.4 -2.1032,-8.25 -0.9274,-3.85 -2.0647,-7.24482 -2.5273,-7.54403 -0.9809,-0.63451 12.0128,-10.58816 15.605,-11.9539 4.7288,-1.7979 7.2705,4.03302 3.8725,8.88425 -1.3698,1.95576 -1.4101,2.47651 -0.25,3.23246 0.7606,0.49562 2.3955,0.66307 3.633,0.37212 3.7494,-0.88155 2.8222,2.88597 -1.25,5.07903 -3.4293,1.84676 -3.5709,1.8467 -7.006,-0.003 -1.9283,-1.03845 -3.8175,-1.5766 -4.1982,-1.19589 -0.3807,0.38072 -0.2241,2.44595 0.348,4.58942 0.9769,3.66003 0.8697,4.02326 -1.7613,5.96848 -3.2618,2.41159 -3.7981,2.51253 -4.3625,0.82128 z m 7.7402,-17.29047 c 2.7872,-2.58445 3.2441,-3.62183 2.0994,-4.76651 -1.2926,-1.29268 -6.3596,2.70901 -6.3596,5.02259 0,2.93188 0.8791,2.87903 4.2602,-0.25608 z m 13.2548,-5.20953 c -0.8474,-3.1625 -1.9188,-6.9158 -2.3809,-8.34066 -0.714,-2.20168 -0.4136,-2.87735 2.0007,-4.5 1.5625,-1.05014 3.1821,-1.82411 3.599,-1.71994 0.4169,0.10418 1.4497,2.99661 2.295,6.42763 0.8453,3.43103 2.0165,6.39809 2.6027,6.59347 0.5861,0.19539 2.1341,-0.5099 3.4399,-1.5673 2.3364,-1.8919 2.3525,-2.02394 1.0065,-8.28287 -0.7523,-3.49818 -1.4151,-7.16703 -1.4729,-8.15299 -0.1036,-1.76862 4.8116,-5.62407 5.8483,-4.58736 0.2938,0.29379 1.3025,4.189 2.2416,8.65601 1.996,9.49435 2.0504,9.38041 -8.055,16.87688 -7.9564,5.90235 -9.2097,5.74432 -11.1249,-1.40287 z m 24.1516,-9.91667 c -1.0574,-1.05747 -0.7741,-3.33333 0.4151,-3.33333 1.7392,0 9.9183,-7.10882 9.9183,-8.62046 0,-1.74917 0.1263,-1.7653 -5.4324,0.69356 -3.7008,1.63705 -4.9896,1.82163 -6.1271,0.87755 -1.6735,-1.3889 -1.8828,-5.25574 -0.4313,-7.96801 1.033,-1.9301 11.6433,-9.98264 13.1535,-9.98264 2.3272,0 0.319,3.40655 -3.6627,6.21311 -2.475,1.74454 -4.5,3.79777 -4.5,4.56272 0,0.76496 0.3396,1.24084 0.7546,1.0575 7.6285,-3.36937 10.3152,-4.02022 11.7343,-2.84252 1.9509,1.61908 1.9352,5.95856 -0.032,8.76657 -1.3645,1.94807 -13.4907,11.24262 -14.6678,11.24262 -0.251,0 -0.7563,-0.3 -1.123,-0.66667 z m 18.8045,-22.58333 c -1.0209,-4.5375 -2.2301,-8.5081 -2.6871,-8.82355 -0.4571,-0.31546 0.8469,-1.76748 2.8978,-3.22671 3.8558,-2.74344 5.2689,-2.33034 5.3028,1.55026 0.02,2.2834 0.7196,2.20878 4.6873,-0.5 1.9015,-1.29816 3.1246,-2.88456 2.8912,-3.75 -0.2224,-0.825 -0.6767,-2.45321 -1.0094,-3.61824 -0.4479,-1.56869 0.071,-2.56128 2.0015,-3.82598 3.6797,-2.41105 5.0868,-1.43212 5.9144,4.11469 0.3963,2.65624 1.2989,6.51359 2.0058,8.57189 1.2653,3.68404 1.2347,3.77364 -1.9631,5.75 -1.7866,1.1042 -3.4932,2.00764 -3.7925,2.00764 -0.2992,0 -0.8491,-1.80572 -1.222,-4.01271 l -0.6779,-4.01271 -3.8521,3.05093 -3.8522,3.05092 1.3544,3.83865 c 1.3199,3.74111 1.2814,3.89258 -1.5174,5.96178 -1.5794,1.16773 -3.2663,2.12314 -3.7486,2.12314 -0.4823,0 -1.7121,-3.7125 -2.7329,-8.25 z m 25.06,-17.5 c -0.9183,-4.2625 -1.8382,-8.425 -2.0442,-9.25 -0.5045,-2.02055 14.6207,-13.20955 16.0131,-11.84575 1.0061,0.98545 -2.3983,4.62936 -7.3301,7.84575 -1.5605,1.01776 -2.0876,2.05307 -1.6394,3.2203 0.5821,1.5159 1.1155,1.35477 4.4888,-1.35612 3.4753,-2.79279 5.9807,-3.15611 5.9807,-0.8673 0,0.48337 -2.025,2.33309 -4.5,4.1105 -4.2101,3.02345 -5.6876,6.04061 -3.5923,7.33558 0.4992,0.30854 3.1534,-1.21419 5.8983,-3.38386 4.6049,-3.64 5.0312,-3.78959 5.5159,-1.93581 0.4203,1.6069 -1.096,3.19672 -7.5754,7.94287 -4.4554,3.26361 -8.4259,5.93384 -8.8233,5.93384 -0.3974,0 -1.4738,-3.4875 -2.3921,-7.75 z m 20.4689,-8.75 c 0,-1.375 0.3854,-2.3875 0.8566,-2.25 1.4785,0.43151 10.1434,-6.29948 10.1434,-7.87952 0,-1.6441 -2.2748,-1.24873 -7.1867,1.24913 -3.1724,1.61326 -5.494,0.96206 -6.3661,-1.78571 -1.0646,-3.3544 1.3845,-7.14554 7.4833,-11.5839 6.568,-4.77986 7.0791,-4.96119 7.0458,-2.5 -0.013,0.9625 -1.813,3.07382 -4,4.69183 -2.187,1.618 -3.9763,3.5305 -3.9763,4.25 0,1.72394 0.3702,1.6701 5.0967,-0.74117 6.1809,-3.15325 10.0387,-0.61067 8.4823,5.59048 -0.5754,2.2925 -14.3224,13.45886 -16.5694,13.45886 -0.5553,0 -1.0096,-1.125 -1.0096,-2.5 z m -379.12815,91.39482 c 3.64121,-1.26934 5.12811,-3.50836 5.12811,-7.72209 0,-3.15735 2.23195,-4.84239 3.79261,-2.86329 0.51637,0.65481 1.37406,2.54056 1.90598,4.19056 1.00475,3.11665 2.87496,4.09535 5.09195,2.66467 1.04814,-0.67639 1.05374,-1.71819 0.0298,-5.54652 -1.94733,-7.28085 -4.01322,-8.93274 -10.4988,-8.39491 -6.45682,0.53545 -7.50701,1.42722 -8.25169,7.00689 -0.44915,3.36538 -1.01903,4.33396 -2.69026,4.57244 -2.85343,0.40716 -6.18019,-7.133 -4.19988,-9.51913 1.08344,-1.30547 0.74887,-1.43698 -2.53123,-0.99495 -2.07883,0.28015 -4.06044,0.79011 -4.40358,1.13325 -0.34314,0.34314 0.39614,3.79099 1.64285,7.66188 2.3629,7.33657 3.80379,8.72116 9.21301,8.85299 1.43042,0.0349 4.02742,-0.43394 5.77111,-1.04179 z m 462.00495,-4.77169 c 1.7758,-1.77576 6.268,-14.01935 7.5948,-20.69941 0.336,-1.69195 0.1877,-4.18941 -0.3295,-5.54991 -1.0716,-2.81858 -19.3578,-17.37381 -21.8272,-17.37381 -1.0672,0 -2.2398,1.81126 -3.4196,5.28238 -1.2468,3.66808 -1.4288,5.19847 -0.5955,5.00782 0.6601,-0.15102 5.1377,2.58689 9.9502,6.08422 7.4487,5.41316 8.75,6.78059 8.75,9.19513 0,3.05145 -1.8673,7.93045 -3.0351,7.93045 -0.3927,0 -4.5348,-2.925 -9.2046,-6.5 -4.6698,-3.575 -8.9838,-6.5 -9.5867,-6.5 -0.6029,0 -1.7886,2.33168 -2.6349,5.1815 -1.7992,6.05849 -1.7778,5.89033 -0.7066,5.5685 0.4577,-0.1375 5.0346,3.0125 10.171,7 5.1364,3.9875 10.1619,7.25 11.1679,7.25 1.0059,0 2.6735,-0.84459 3.7058,-1.87687 z m -219.8768,-17.13801 c 47.7127,-34.63089 66.6927,-48.48655 67.8383,-49.52269 1.1086,-1.00276 0.823,-2.73389 -1.6642,-10.08648 -1.6514,-4.88177 -7.8165,-23.72595 -13.7003,-41.87595 -5.8837,-18.15 -11.919,-36.6 -13.4116,-41 l -2.7139,-8 -53.2932,0 -53.2932,0 -5.2843,16 c -2.9063,8.8 -10.117,30.85 -16.0236,49 -5.9067,18.15 -10.9227,33.49568 -11.1467,34.1015 -0.2241,0.60583 13.2276,10.93194 29.8927,22.94692 16.665,12.01497 33.45,24.1562 37.3,26.9805 3.85,2.82429 9.6456,6.99989 12.8793,9.2791 l 5.8793,4.14402 3.1207,-2.1729 c 1.7163,-1.19509 7.8457,-5.6024 13.6207,-9.79402 z m -241.94641,1.86352 c 10.87545,-1.23667 12.09939,-2.02262 10.07358,-6.4688 -0.74089,-1.62607 -1.56879,-2.21866 -2.38146,-1.70457 -2.18934,1.38495 -21.63737,3.03311 -22.74307,1.92741 -0.87317,-0.87317 -1.44428,-4.43683 -0.75268,-4.69657 0.1375,-0.0516 5.2,-0.61414 11.25,-1.25 l 11,-1.15611 -0.28055,-3.44722 c -0.15431,-1.89597 -0.37931,-3.53166 -0.5,-3.63487 -0.1207,-0.10321 -2.91945,0.16619 -6.21945,0.59868 -3.3,0.43249 -8.81001,1.03852 -12.24447,1.34673 -8.1389,0.7304 -10.25553,1.90764 -10.25553,5.70398 0,3.47019 2.35326,9.56058 4.69313,12.1461 1.90441,2.10435 4.61583,2.19816 18.3605,0.63524 z m -18.50363,-22.33197 3.48333,-3.48334 2.09941,2.09941 c 1.73531,1.73531 2.9609,2.01663 7.06678,1.62211 3.23919,-0.31124 5.69924,-1.20917 7.07101,-2.58093 l 2.10363,-2.10364 -2.38046,-7.59036 -2.38046,-7.59037 -3.55662,0.54621 c -3.48177,0.53473 -23.39718,2.56424 -25.16257,2.56424 -1.20353,0 -1.13485,3.68154 0.11214,6.01156 0.84772,1.58398 1.46487,1.72019 3.91855,0.86483 1.6018,-0.55839 4.38089,-0.87151 6.17576,-0.69582 l 3.26339,0.31943 -5.18195,3.2087 c -5.2367,3.2426 -6.02918,4.8397 -4.14676,8.35704 1.50646,2.81484 3.57791,2.38784 7.51482,-1.54907 z m 8.05699,-8.09846 c -1.0156,-2.64661 -0.71712,-3.164 2.14046,-3.71026 2.87958,-0.55047 4.21117,0.56265 4.23724,3.54205 0.0202,2.30497 -5.50186,2.45062 -6.3777,0.16821 z m 486.81095,4.33179 c 2.2033,-5.44183 2.7458,-8.75 1.4349,-8.75 -2.0075,0 -18.9055,-13.42035 -18.4366,-14.64231 0.2426,-0.63223 1.0121,-3.05525 1.7099,-5.38447 1.2012,-4.0091 1.1415,-4.33806 -1.1185,-6.16814 l -2.3874,-1.93319 -4.8101,14.80478 c -2.6456,8.14263 -4.8101,15.34594 -4.8101,16.00735 0,0.66142 1.0056,1.90694 2.2347,2.76785 2.1914,1.53492 2.2616,1.46881 3.6189,-3.41027 l 1.3841,-4.97554 6.1311,4.65392 c 3.3722,2.55966 7.6093,5.91979 9.416,7.46697 1.8066,1.54718 3.5171,2.81305 3.801,2.81305 0.2839,0 1.1084,-1.4625 1.8321,-3.25 z M 139.81855,453.33416 c 0.29918,-0.29918 0.0682,-0.85699 -0.51328,-1.23958 -1.23281,-0.81115 -3.61326,-7.30055 -2.92899,-7.98481 0.76932,-0.76932 8.78218,-2.12072 12.85038,-2.16727 3.56207,-0.0408 3.93356,0.24431 5.79124,4.44388 1.48758,3.36294 2.46938,4.41351 3.918,4.19244 3.18768,-0.48648 3.28452,-1.2684 1.00528,-8.11753 -2.59145,-7.78728 -3.35945,-8.14649 -15.39007,-7.1981 -14.75534,1.16319 -16.86888,2.5577 -14.91975,9.84403 2.49918,9.34259 3.01887,10.09577 6.48732,9.40208 1.73575,-0.34715 3.4007,-0.87596 3.69987,-1.17514 z m 124.88922,-14.23654 c 1.767,-5.39073 3.2127,-10.26287 3.2127,-10.82699 0,-0.56411 -4.6125,-4.34498 -10.25,-8.40194 -5.6375,-4.05695 -17.67504,-12.76931 -26.75004,-19.36079 -51.96556,-37.74435 -55.3399,-40.02405 -56.44977,-38.13727 -0.57763,0.98196 -3.40434,4.87348 -6.28159,8.64783 l -5.23137,6.86246 9.73137,7.27893 c 5.35225,4.00341 14.90636,10.97941 21.23136,15.50222 6.325,4.5228 23.875,17.20388 39,28.18017 15.125,10.97628 27.74184,19.97934 28.03734,20.0068 0.2955,0.0274 1.983,-4.36069 3.75,-9.75142 z m 384.3305,5.05133 c 0.5875,-1.5125 2.404,-7.025 4.0365,-12.25 3.5451,-11.34641 2.9794,-15.72819 -2.4588,-19.04409 -5.9137,-3.60581 -8.4799,-2.36579 -13.1729,6.36525 -2.0549,3.82287 -4.1794,4.73684 -5.1474,2.21437 -0.3091,-0.80546 0.4413,-4.47922 1.6675,-8.16391 2.1486,-6.45654 2.1632,-6.74789 0.4022,-8.03553 -1.005,-0.73485 -2.1541,-1.33609 -2.5536,-1.33609 -1.0716,0 -6.8913,18.03227 -6.8913,21.35247 0,1.9162 1.1347,3.98225 3.4693,6.31691 5.0738,5.07378 7.941,4.41921 12.7879,-2.91938 4.097,-6.20307 5.2481,-6.88396 6.2581,-3.70168 0.7933,2.49942 -3.0354,15.58642 -4.7692,16.30167 -0.8309,0.34277 -0.3112,1.36979 1.5596,3.08204 1.5432,1.41238 3.0168,2.56797 3.2748,2.56797 0.2579,0 0.9497,-1.2375 1.5373,-2.75 z m -156.6005,-13.43554 c 4.6654,-3.40205 8.4827,-6.75062 8.4827,-7.44125 0,-0.69064 -3.6324,-12.41965 -8.072,-26.06446 -14.668,-45.08134 -36.0188,-110.5461 -41.4863,-127.20317 -2.9597,-9.01692 -5.1775,-16.72408 -4.9285,-17.127 0.249,-0.40292 2.4854,-1.24442 4.9698,-1.86998 2.4843,-0.62557 4.5099,-1.46842 4.5013,-1.873 -0.016,-0.75029 -29.2382,-21.31503 -29.672,-20.88123 -0.981,0.98094 -12.0586,34.64563 -11.4004,34.64563 0.4641,0 2.4593,-0.675 4.4338,-1.5 5.2799,-2.20606 6.0369,-1.92719 7.4649,2.75 1.6686,5.46513 25.5249,79.03226 28.6176,88.25 1.9521,5.81819 25.8773,79.26228 27.1196,83.25 0.2142,0.6875 0.6363,1.25 0.9381,1.25 0.3018,0 4.3659,-2.78349 9.0314,-6.18554 z m -9.0521,-6.76598 c -1.1191,-0.45362 -2.5186,-1.43759 -3.11,-2.18662 -1.5348,-1.94386 -5.2854,-13.59839 -4.5975,-14.28629 1.3082,-1.30818 4.1132,-0.48896 4.0212,1.17443 -0.1372,2.48232 2.9138,9.25 4.17,9.25 0.5801,0 1.0511,-2.03072 1.0511,-4.53222 0,-3.78521 0.3708,-4.6703 2.25,-5.36993 3.5388,-1.31756 6.0728,0.1795 8.4157,4.97203 3.4368,7.03041 3.7816,8.93012 1.6208,8.93012 -1.2772,0 -2.3021,-1.31294 -3.3174,-4.25 -1.7467,-5.05298 -3.4691,-4.76864 -3.4691,0.57269 0,2.62718 -0.6071,4.26907 -1.9412,5.25 -2.1854,1.60691 -2.281,1.61584 -5.0936,0.47579 z m -11.6043,-26.79848 c -1.2654,-4.2625 -2.1978,-7.975 -2.0719,-8.25 0.1258,-0.275 4.3849,-0.40499 9.4647,-0.28886 l 9.2359,0.21113 2.3606,7.60014 c 1.2983,4.18008 2.099,7.86169 1.7793,8.18137 -1.0767,1.07672 -3.2906,-1.64684 -4.6248,-5.68947 -0.8788,-2.66276 -1.9173,-4.01431 -3.0844,-4.01431 -1.6487,0 -1.6603,0.25247 -0.184,4.01075 0.8665,2.20592 1.2997,4.28651 0.9627,4.62354 -1.3623,1.36228 -3.3889,-0.65561 -4.5497,-4.5302 -1.0182,-3.39847 -1.6641,-4.10409 -3.7569,-4.10409 -2.7443,0 -2.7203,1.31125 0.133,7.25 1.246,2.59339 1.1879,2.75 -1.0213,2.75 -2.0572,0 -2.6226,-0.9437 -4.6432,-7.75 z m 12.5891,-11.0968 c -0.5225,-0.46575 -4.775,-2.33468 -9.45,-4.1532 -10.058,-3.91243 -9.7943,-3.72133 -10.5838,-7.66902 -0.6195,-3.09714 -0.5966,-3.11607 7.5925,-6.27411 4.5176,-1.74218 8.4091,-2.97239 8.6476,-2.73381 0.2386,0.23858 0.526,1.67239 0.6387,3.18624 0.1781,2.39176 -0.352,2.95896 -4.045,4.32823 -2.3375,0.86668 -4.25,1.84998 -4.25,2.18511 0,0.70703 9.9974,4.97736 11.6526,4.97736 1.0601,0 2.3044,3.06592 2.3337,5.75 0.016,1.4424 -1.1607,1.62942 -2.5363,0.4032 z m -20.2582,-23.12134 c -5.7016,-3.57314 -9.3012,-15.03639 -5.6683,-18.0514 2.5183,-2.09003 8.8726,-2.0259 12.4099,0.12525 4.9818,3.02963 8.568,13.57491 5.8528,17.21062 -2.113,2.8294 -8.6305,3.19968 -12.5944,0.71553 z m 9.1508,-5.99526 c 0.9026,-0.8804 -0.9237,-5.05696 -2.7423,-6.27129 -1.5063,-1.00573 -8.3625,-0.95911 -8.9931,0.0611 -1.0384,1.68017 0.7222,5.2845 3.2682,6.69083 2.5573,1.41256 6.7714,1.17332 8.4672,-0.48069 z m -20.2947,-17.2866 c -1.0781,-3.05289 -0.9513,-3.41553 2.0896,-5.97927 3.7292,-3.14406 3.3147,-4.09898 -1.8228,-4.19926 -3.1202,-0.0609 -3.7708,-0.47736 -4.4004,-2.81669 -0.4064,-1.50987 -0.342,-2.99048 0.143,-3.29024 0.485,-0.29975 4.6991,-0.46981 9.3646,-0.3779 l 8.4826,0.16711 2.4965,7.42497 c 1.373,4.08373 2.2463,8.07664 1.9407,8.87312 -0.9649,2.51442 -7.9865,2.31622 -9.8842,-0.279 -1.0642,-1.45536 -1.4769,-1.50167 -2.8948,-0.32488 -0.9096,0.75486 -1.4224,1.97537 -1.1396,2.71225 0.3167,0.82549 -0.2041,1.33979 -1.3567,1.33979 -1.2086,0 -2.2771,-1.15047 -3.0185,-3.25 z m 13.731,-5.85221 c 0.4538,-2.33751 -2.0557,-5.0012 -3.7221,-3.95075 -1.1824,0.74539 -1.225,1.38848 -0.2356,3.5599 1.2408,2.72342 3.4622,2.94279 3.9577,0.39085 z m -12.6445,-15.64779 c -1.148,-0.9625 -2.6623,-3.55 -3.3652,-5.75 -1.1157,-3.49207 -1.6584,-4 -4.2736,-4 -2.3484,0 -3.269,-0.62683 -4.261,-2.90132 -0.6959,-1.59572 -0.9948,-3.17072 -0.6641,-3.5 0.3307,-0.32927 4.6072,-0.59868 9.5034,-0.59868 l 8.9022,0 2.4833,7.36923 c 2.9587,8.77994 2.3496,11.13077 -2.8838,11.13077 -1.8448,0 -4.2933,-0.7875 -5.4412,-1.75 z m 5.2583,-5.07646 c 0.2809,-0.45455 0.255,-1.80455 -0.058,-3 -0.4177,-1.59742 -1.3327,-2.17354 -3.4518,-2.17354 -3.2899,0 -3.5179,0.64908 -1.3266,3.77749 1.5725,2.24518 3.8966,2.91607 4.836,1.39605 z m -19.2418,-16.27993 c -1.2785,-2.06947 -5.0738,-12.54077 -5.1264,-14.14361 -0.013,-0.4125 0.988,-0.74968 2.2255,-0.74929 1.6636,5.2e-4 2.2855,0.62005 2.3865,2.37717 0.1776,3.09059 2.5195,7.86239 4.1135,8.38161 0.887,0.28895 1.25,-1.03731 1.25,-4.56775 0,-4.4834 0.249,-5.03743 2.5205,-5.60753 3.5235,-0.88436 6.2173,0.8572 8.046,5.20186 2.5587,6.0791 2.9325,9.21393 1.0986,9.21393 -0.9826,0 -2.0403,-1.52004 -2.7833,-4 -1.6624,-5.54846 -3.6969,-5.17419 -4.0771,0.75 l -0.3047,4.75 -4,0.28866 c -3.2162,0.2321 -4.2644,-0.13925 -5.3491,-1.89505 z m -7.5207,-20.14361 c -1.2514,-4.6696 -1.1032,-4.75 8.7531,-4.75 8.8856,0 9.4154,0.11936 9.9864,2.25 1.2514,4.6696 1.1032,4.75 -8.7531,4.75 -8.8856,0 -9.4154,-0.11936 -9.9864,-2.25 z m -0.2411,-8.72971 c -1.161,-0.46911 -2.4459,-1.67808 -2.8552,-2.68661 -1.0514,-2.59062 -5.5339,-15.60536 -5.5339,-16.06759 0,-0.21098 4.4359,-0.24466 9.8576,-0.0748 l 9.8576,0.30875 1.2552,4.5 c 2.7204,9.75277 2.8337,10.83465 1.3552,12.94542 -1.1499,1.64181 -2.4824,2.04185 -6.6323,1.99119 -2.8564,-0.0349 -6.1432,-0.4472 -7.3042,-0.91632 z m 10.1109,-8.52029 c 0,-2.98087 -0.04,-3.0019 -6.2368,-3.29737 -5.6377,-0.26881 -6.1755,-0.1247 -5.598,1.5 1.4062,3.95667 3.6134,5.40165 7.783,5.09518 3.7691,-0.27703 4.0518,-0.50709 4.0518,-3.29781 z M 127.8846,389.47852 c 10.58286,-3.695 19.66389,-9.41266 27.64099,-17.40351 8.18876,-8.20286 13.47328,-16.75207 17.1074,-27.67606 2.32932,-7.00183 2.66355,-9.62203 2.67876,-21 0.0199,-14.92151 -1.25547,-20.41644 -7.58913,-32.69676 -17.22841,-33.40409 -59.61922,-46.80854 -93.302188,-29.5032 -13.63272,7.0041 -23.66678,17.25347 -30.54455,31.19996 -5.42334,10.99724 -7.29133,18.95808 -7.27406,31 0.0276,19.23088 6.49334,34.7155 20.28451,48.57862 10.88232,10.9391 20.18232,16.1921 34.5341,19.50619 9.544498,2.204 27.187288,1.23379 36.464168,-2.00524 z m -2.09911,-23.32957 c -0.59699,-1.5125 -1.06595,-3.9875 -1.04213,-5.5 0.0457,-2.90219 -0.46973,-3.25999 -2.67928,-1.85994 -1.12227,0.71111 -1.05653,1.49127 0.38091,4.52044 1.86149,3.92282 1.66338,4.98259 -0.75775,4.05351 -0.86589,-0.33227 -1.777,-2.38549 -2.11825,-4.77354 -0.52514,-3.67496 -0.27025,-4.48207 2.07198,-6.56081 2.94846,-2.61677 2.89504,-2.70958 -3.64567,-6.33315 -3.56457,-1.97479 -4.05234,-5.52132 -1.57487,-11.45075 2.22841,-5.33334 2.02411,-5.6938 -2.75,-4.85194 -2.3375,0.41219 -7.175,1.03852 -10.75,1.39184 -5.070238,0.50111 -6.412178,0.96927 -6.100738,2.12838 1.59815,5.94788 1.40636,6.40277 -4.42575,10.49662 -3.12577,2.19414 -6.61725,5.66417 -7.75884,7.71119 -2.01893,3.62022 -2.02534,3.77739 -0.23461,5.75613 1.01256,1.11885 1.50503,2.36902 1.09439,2.77815 -1.38412,1.37904 -4.34253,-3.51855 -3.80955,-6.30665 0.78194,-4.09044 -2.80133,-2.80098 -4.25965,1.53287 l -1.17181,3.48235 -0.72066,-2.87134 c -0.57991,-2.31058 -0.2143,-3.39986 1.87215,-5.57764 2.29239,-2.39273 2.41451,-2.85429 1.05394,-3.98346 -1.2295,-1.02039 -1.84043,-1.02688 -3.03887,-0.0323 -1.2483,1.03599 -1.5,0.90928 -1.5,-0.75511 0,-1.1 0.71854,-2.59634 1.59677,-3.32521 1.34644,-1.11744 1.74617,-1.05825 2.54969,0.37756 1.19396,2.13349 5.68506,2.20949 8.63103,0.14606 3.41076,-2.38899 2.83243,-6.06867 -1.65985,-10.56095 -3.97175,-3.97175 -7.11764,-5.03732 -7.11764,-2.41086 0,2.72347 -4.68988,12.1057 -7.85084,15.70584 -3.39782,3.8699 -10.96866,7.62607 -16.23411,8.05431 -3.05597,0.24855 -3.39038,-0.0269 -4.53043,-3.73164 -1.56115,-5.07311 -1.69791,-14.81227 -0.28085,-20 1.64463,-6.02083 5.00789,-9.76808 14.92505,-16.6291 l 9.00282,-6.22843 -2.70291,-2.82124 c -3.11733,-3.25379 -6.59912,-3.61367 -11.65157,-1.20432 -3.15101,1.50261 -3.57753,1.49448 -6.03393,-0.11501 -1.45378,-0.95256 -2.64323,-2.13017 -2.64323,-2.61691 0,-1.32718 1.13639,-1.07153 3.08807,0.69471 1.37333,1.24285 2.18977,1.34197 3.82874,0.46482 1.14575,-0.61319 2.08319,-1.57561 2.08319,-2.13872 0,-0.56311 -0.35899,-0.80197 -0.79775,-0.5308 -1.77817,1.09897 -3.45003,-1.39362 -3.95809,-5.90115 -0.38827,-3.44474 -0.21878,-4.57619 0.60889,-4.06466 0.63082,0.38986 1.14695,2.00573 1.14695,3.59081 0,1.58508 0.45,3.16008 1,3.5 0.58773,0.36324 1.01311,-0.74616 1.0318,-2.69098 0.0295,-3.07043 1.85359,-6.80902 3.32216,-6.80902 0.75639,0 0.36604,3.05544 -0.58466,4.57646 -0.37005,0.59205 -0.41705,2.05455 -0.10444,3.25 0.50213,1.92012 1.25311,2.17354 6.44104,2.17354 3.29384,0 8.01176,0.8128 10.744,1.85097 4.45787,1.69386 5.1166,1.72003 7.76072,0.30835 4.87655,-2.60356 11.84574,-1.81575 23.753268,2.68511 l 10.8639,4.10639 4.22396,-2.47541 c 3.23993,-1.89873 5.63929,-2.47541 10.29924,-2.47541 l 6.07528,0 -1.07671,-2.85254 c -0.59219,-1.56889 -0.76751,-3.6583 -0.3896,-4.64312 0.88,-2.29324 1.65264,-1.50089 2.07704,2.13002 0.18423,1.5761 0.38627,3.20314 0.44898,3.61564 0.0627,0.4125 0.56402,0.75 1.11402,0.75 0.55,0 1,-1.32448 1,-2.9433 0,-1.89466 0.78013,-3.48972 2.18967,-4.477 2.87827,-2.01602 3.47777,-1.24729 1.44579,1.85391 -1.78035,2.71716 -2.19799,8.10069 -0.70023,9.02636 0.51437,0.3179 1.07687,-0.89304 1.25,-2.69099 0.27142,-2.81878 0.72793,-3.30792 3.31477,-3.55172 l 3,-0.28274 -2.45234,1.93967 c -1.49061,1.17899 -2.60195,3.25071 -2.83384,5.28274 -0.48526,4.25231 -0.67938,4.40761 -3.75665,3.00551 -3.82329,-1.74201 -8.90644,-1.42847 -10.80218,0.6663 -0.9726,1.07471 -1.65499,3.51651 -1.65499,5.92208 0,3.56763 0.53684,4.55285 4.18,7.67126 5.62842,4.81772 11.1343,4.99688 16.22415,0.52794 9.53346,-8.3705 6.43362,-23.99196 -7.8621,-39.62055 -7.90061,-8.63723 -12.46873,-10.79216 -21.49386,-10.13934 -7.86588,0.56897 -11.04819,3.26194 -11.04819,9.34933 0,7.67825 7.13384,12.77867 15.01635,10.73611 6.0713,-1.57323 4.69722,-8.06828 -1.44694,-6.83945 -2.87813,0.57562 -2.94959,0.51549 -1.32173,-1.11237 3.55735,-3.55735 11.05447,2.37464 8.65874,6.85111 -0.93133,1.7402 -2.36907,2.31497 -8.10034,3.23834 -6.86582,1.10616 -15.37045,-4.9539 -16.47115,-11.73666 -0.53165,-3.27618 -0.18826,-4.05851 3.32232,-7.56909 4.63784,-4.63783 10.62878,-6.58427 17.27165,-5.6115 4.95098,0.72502 14.56562,5.1761 19.91125,9.21789 4.54597,3.43718 11.72092,13.32148 15.79395,21.75795 2.87845,5.96214 3.3659,8.03046 3.3659,14.28212 0,11.78809 -3.29485,17.14616 -13.45229,21.87605 -5.87591,2.73616 -12.39221,3.04183 -18.54771,0.87004 -5.84156,-2.06102 -7.42635,-1.908 -12.07079,1.16555 l -4.02791,2.66554 4.59226,4.66237 c 4.01142,4.07266 4.56011,5.1399 4.33801,8.43773 -0.21797,3.23658 0.23971,4.1849 3.20709,6.64518 3.21286,2.66381 3.29648,2.87176 1.16483,2.89673 -1.52084,0.0178 -2.87188,-0.98424 -4,-2.96678 -2.71051,-4.76338 -5.17587,-3.43447 -2.65231,1.42969 1.72467,3.32431 1.75319,3.56399 0.42407,3.56399 -0.56361,0 -1.5132,-1.2375 -2.11019,-2.75 z M 63.209502,350.83086 c 6.19133,-4.10097 8.793,-8.5807 11.14017,-19.18191 0.51778,-2.33864 1.11533,-2.75 3.99469,-2.75 2.89775,0 4.18091,0.90044 8.90128,6.24633 3.0335,3.43548 5.80267,5.95912 6.1537,5.60809 0.52136,-0.52136 -0.80269,-4.22138 -3.27998,-9.16582 -0.2236,-0.44627 2.22768,-0.52752 5.44727,-0.18056 3.63771,0.39202 8.324038,0.10076 12.378938,-0.76936 4.9075,-1.05307 7.30681,-1.13226 9.67823,-0.31944 4.53033,1.55282 4.62379,1.85387 2.15377,6.9379 -1.22889,2.52944 -1.94492,4.88841 -1.59118,5.24216 0.35375,0.35375 2.92784,-1.17589 5.72019,-3.3992 4.68754,-3.73227 5.32391,-3.9617 8.29543,-2.99071 1.77013,0.57842 6.21374,1.52018 9.87468,2.0928 5.6066,0.87695 7.34123,0.77331 11,-0.65721 9.30445,-3.63791 13.83487,-10.06891 13.83921,-19.64498 0.004,-7.70251 -3.05111,-14.97586 -10.33615,-24.61149 -7.77572,-10.28463 -10.03837,-11.28173 -3.12925,-1.379 6.92073,9.91938 9.37253,21.71252 6.08013,29.24544 -2.18123,4.99058 -8.78794,9.74505 -13.54153,9.74505 -4.67512,0 -14.38841,-5.93577 -15.95753,-9.75161 -1.25918,-3.06211 -0.29678,-7.78994 2.43415,-11.95785 0.88798,-1.35524 1.3676,-2.71098 1.06582,-3.01276 -0.66615,-0.66615 -5.18266,2.11981 -8.64751,5.33412 l -2.53639,2.35299 -8.26936,-4.06628 c -11.92966,-5.86616 -20.856988,-6.80591 -28.055598,-2.95334 -1.80416,0.96556 -3.1005,0.72773 -7.57746,-1.39021 -2.97052,-1.40529 -5.87881,-2.55506 -6.46287,-2.55506 -2.11669,0 -0.99278,2.99125 1.93808,5.15812 1.65,1.2199 3,2.56352 3,2.98583 0,0.42231 -3.11232,2.58552 -6.91625,4.80714 -9.64586,5.63348 -15.65789,11.89969 -17.61153,18.3561 -2.2294,7.36778 -2.82739,13.74721 -1.58816,16.94281 1.49776,3.86226 6.27892,3.73967 12.40501,-0.31809 z m -2.97961,-7.56783 c -0.76122,-1.98372 0.88846,-4.86408 2.78583,-4.86408 1.82858,0 2.38053,3.22174 0.86484,5.04804 -1.58008,1.90387 -2.87452,1.83864 -3.65067,-0.18396 z m 627.690578,47.71236 c 25.6303,-5.66967 43.7486,-22.05644 51.9965,-47.02744 3.849,-11.65297 4.56,-20.44105 2.5814,-31.9064 -6.0735,-35.19363 -33.5877,-58.53753 -69.0779,-58.60778 -12.204,-0.0242 -20.8307,2.03829 -32,7.6505 -15.2277,7.65135 -28.113,22.93647 -34.1747,40.53952 -2.3291,6.76373 -2.6838,9.40122 -2.7261,20.27516 -0.084,21.66763 5.1816,34.77297 19.8986,49.52134 11.8063,11.83148 21.4957,17.06373 37.0022,19.98116 9.8517,1.85354 16.6919,1.74356 26.5,-0.42606 z m -1.8695,-13.14811 c -14.4344,-9.63891 -21.0698,-23.42921 -21.1366,-43.92833 -0.012,-3.575 -0.304,-7.55598 -0.6495,-8.84662 -0.5519,-2.06155 -1.0058,-2.25247 -3.7363,-1.57164 -1.7095,0.42623 -5.8524,0.80721 -9.2064,0.84662 -5.459,0.0641 -6.5976,0.46049 -10.862,3.78106 -8.2291,6.40773 -15.1336,7.25766 -21.0639,2.5929 -3.3284,-2.61807 -6.4242,-9.14279 -6.4539,-13.60198 -0.043,-6.4386 5.0236,-12.25961 10.798,-12.40605 1.474,-0.0374 9.6142,2.2436 18.0893,5.06887 16.1156,5.37229 18.0625,5.7575 21.0415,4.16322 3.7928,-2.02989 3.2895,-5.28914 -3.449,-22.3343 -3.576,-9.04533 -6.5017,-17.47144 -6.5017,-18.72468 0,-3.74027 4.5806,-8.77739 9.0849,-9.99027 4.7393,-1.27616 13.465,0.76307 16.2009,3.78623 5.7221,6.32287 5.1868,14.84467 -1.4702,23.40353 -2.5876,3.32683 -2.8272,4.30061 -2.5839,10.5 0.1476,3.75821 -0.078,8.07061 -0.5008,9.58311 l -0.769,2.75 11.8825,0 c 19.5136,0 28.7356,2.81378 38.2806,11.68006 5.1137,4.75002 10.875,12.62076 10.875,14.85674 0,0.70811 -7.1568,-0.9259 -18.75,-4.28095 -10.3125,-2.98441 -22.8,-6.52638 -27.75,-7.87104 -4.95,-1.34466 -9.7601,-2.67795 -10.6891,-2.96286 -1.5931,-0.48862 1.8681,10.46365 16.1127,50.9846 1.142,3.2486 2.0764,6.0611 2.0764,6.25 0,1.288 -3.664,-0.25212 -8.8695,-3.72822 z m -0.111,-8.37142 c -1.7147,-4.98387 -9.2595,-32.21584 -11.7767,-42.50642 -0.68,-2.77967 -1.4864,-3.61603 -4.153,-4.30701 -1.82,-0.47162 -3.3999,-0.71934 -3.5107,-0.55049 -0.1109,0.16886 0.098,5.48201 0.4644,11.80701 0.7643,13.19807 2.8554,21.51408 7.0789,28.15161 2.9628,4.65634 12.6225,14.43682 13.4456,13.61372 0.2404,-0.24045 -0.4564,-3.03424 -1.5485,-6.20842 z m 40.0307,-38.49349 c -6.3079,-7.9644 -16.2543,-13.37974 -27.5813,-15.01667 -8.4959,-1.2278 -34.4572,-1.36794 -37.6538,-0.20325 -1.6281,0.59319 -6.7664,-0.28382 -17.3151,-2.95536 -16.8255,-4.26119 -19.3743,-4.52163 -23.4788,-2.39911 -4.5236,2.33925 -5.4747,7.79706 -2.3964,13.75155 3.6001,6.96391 13.0861,7.72577 22.5913,1.81439 4.3848,-2.72699 6.5599,-3.3728 12.7839,-3.79565 11.5568,-0.78517 18.1706,-0.76132 22,0.0793 8.0926,1.77657 48.3989,11.87485 50.3623,12.61771 3.6007,1.36237 3.8286,0.0726 0.6879,-3.89295 z m -99.585,-4.01494 c -2.4507,-0.9934 -3.9909,-2.79894 -4.8889,-5.73119 -0.491,-1.60333 0.1149,-3.05941 2.2827,-5.48555 2.4314,-2.72117 3.6355,-3.28491 6.8372,-3.20096 7.616,0.1997 12.8701,4.88817 10.2248,9.12399 -3.0441,4.87444 -9.5828,7.26891 -14.4558,5.29371 z m 10.8887,-3.50073 c 3.5069,-3.25006 3.3985,-6.10728 -0.3043,-8.02207 -6.0232,-3.11475 -14.0496,-0.45904 -14.0496,4.64863 0,5.66032 9.4819,7.88873 14.3539,3.37344 z m 29.6461,-5.54775 c 0,-1.33333 0.6666,-2 2,-2 1.3333,0 2,0.66667 2,2 0,1.33333 -0.6667,2 -2,2 -1.3334,0 -2,-0.66667 -2,-2 z m 3,0 c 0,-0.55 -0.45,-1 -1,-1 -0.55,0 -1,0.45 -1,1 0,0.55 0.45,1 1,1 0.55,0 1,-0.45 1,-1 z m 2.2002,-9.58361 c 0.3889,-2.15402 0.4492,-5.84619 0.1341,-8.20484 -0.4495,-3.36398 0.019,-5.60678 2.1715,-10.40398 5.1754,-11.53226 3.1968,-21.02872 -4.899,-23.51338 -2.8465,-0.87362 -4.1557,-0.76549 -6.805,0.56204 -5.7543,2.88342 -5.7877,5.10474 -0.3613,24.03847 3.2754,11.42836 4.6202,17.72717 4.1687,19.52598 -0.6146,2.44866 -0.4504,2.62647 2.1088,2.28375 2.3448,-0.31402 2.8849,-0.97902 3.4822,-4.28804 z m -7.3739,-20.11906 c -4.3607,-4.99426 -5.0815,-11.43189 -1.7538,-15.66247 2.8001,-3.55966 7.0129,-3.51327 10.4563,0.11514 2.2057,2.32426 2.5386,3.42565 2.1504,7.11424 -0.8311,7.89631 -7.0812,12.75285 -10.8529,8.43309 z m 6.7191,-1.75188 c 2.2077,-2.20765 3.0091,-5.24127 2.5217,-9.54545 -0.2885,-2.54735 -4.7738,-5.88947 -7.0908,-5.28355 -5.3447,1.39766 -6.4135,10.06045 -1.8416,14.92695 2.7695,2.94803 3.374,2.93879 6.4107,-0.0979 z m -339.2455,47.40712 c 43.01,-0.0261 84.8376,-0.006 92.9501,0.045 9.7254,0.0609 14.75,-0.26653 14.75,-0.96122 0,-0.57948 -1.4393,-5.54971 -3.1984,-11.04496 l -3.1983,-9.99139 -89.8017,0 -89.8016,0 0,-5.5 c 0,-4.76011 -1.1181,-7.19144 -2.1667,-4.7118 -0.1833,0.43352 -5.68191,4.82102 -12.21904,9.75 -15.90731,11.99408 -15.15166,11.32813 -14.06055,12.39148 0.52044,0.5072 7.02125,5.43334 14.44625,10.94698 l 13.50004,10.0248 0.2999,-5.45073 0.2999,-5.45073 78.2001,-0.0474 z m -89.03628,-3.70257 c 0.27331,-0.9625 1.52469,-5.18227 2.78086,-9.37727 l 2.28393,-7.62727 6.08579,0.24148 c 7.799,0.30947 7.3311,0.16872 8.6303,2.59635 1.6697,3.11986 -0.5804,11.40647 -3.7809,13.92395 -1.9809,1.55816 -4.056,1.99276 -9.51513,1.99276 -6.17194,0 -6.92413,-0.20299 -6.48485,-1.75 z m 13.28738,-5.71788 c 2.3054,-5.51772 1.946,-7.7244 -1.197,-7.34854 -2.176,0.26021 -2.8838,1.11575 -3.9848,4.81642 -1.77334,5.96027 -1.76551,6 1.1818,6 1.9657,0 2.8834,-0.79564 4,-3.46788 z m 6.4727,6.26169 c 0.013,-0.7116 1.0609,-4.84698 2.3284,-9.18973 l 2.3046,-7.89593 6.4216,-0.17311 c 7.3711,-0.19871 8.0428,-0.0142 7.271,1.99699 -0.377,0.98237 -2.0165,1.46797 -4.9563,1.46797 -3.2383,0 -4.393,0.3943 -4.393,1.5 0,1.04762 1.0555,1.5 3.5,1.5 3.5251,0 4.5636,1.22463 2.2506,2.65414 -0.6872,0.42469 -2.455,0.64571 -3.9285,0.49115 -1.847,-0.19374 -3.0119,0.34081 -3.7506,1.7211 -1.6033,2.99571 -1.4492,3.13361 3.5018,3.13361 3.8161,0 4.518,0.28976 4.2394,1.75 -0.275,1.44079 -1.6131,1.80191 -7.5733,2.04381 -5.4161,0.21981 -7.2335,-0.0321 -7.2157,-1 z m 17.9832,0.23165 c -1.3152,-0.83145 -1.2809,-1.75297 0.2872,-7.73469 0.9792,-3.73492 2.3707,-7.38183 3.0923,-8.10424 2.8642,-2.86753 12.6136,-2.61051 12.6136,0.33252 0,1.05339 -1.1199,1.48095 -3.8787,1.48095 -4.1072,0 -5.033,1.15141 -6.7233,8.36154 l -0.6709,2.86154 4.6365,-0.36874 c 4.7511,-0.37788 5.0783,-0.16967 4.0294,2.56387 -0.4554,1.18657 -2.017,1.57796 -6.25,1.56648 -3.1037,-0.008 -6.3149,-0.44008 -7.1361,-0.95923 z m 14.9931,0.0784 c 0,-1.82351 11.7132,-17.6035 13,-17.51343 0.825,0.0577 2.4805,0.17353 3.679,0.25731 2.0401,0.1426 2.1995,0.72614 2.5,9.15461 l 0.321,9.00229 -2.6805,-0.002 c -2.0175,-0.002 -2.7595,-0.55878 -3,-2.2523 -0.4514,-3.17832 -6.8691,-3.27553 -8.2529,-0.125 -0.8441,1.92163 -5.5666,3.1762 -5.5666,1.47852 z m 14,-9.66283 c 0,-2.78087 -1.3603,-2.5049 -3.0299,0.61471 -0.8721,1.6297 -0.7112,1.94431 0.9947,1.94431 1.5167,0 2.0352,-0.65192 2.0352,-2.55902 z m 7.3638,7.80902 c 0.3376,-1.5125 1.4064,-5.68084 2.375,-9.26298 l 1.7612,-6.51298 6.7029,0.0492 c 3.6866,0.0271 7.0177,0.36408 7.4026,0.74889 1.2925,1.29257 0.5389,6.9108 -1.1822,8.81258 -0.9901,1.09401 -3.7419,2.15394 -6.5641,2.52831 -4.7659,0.63223 -5.2762,1.14341 -5.1279,5.13695 0.027,0.73377 -1.1983,1.25 -2.9675,1.25 -2.77,0 -2.9642,-0.22251 -2.4,-2.75 z m 12.299,-8.5 c 1.2655,-2.02563 1.2267,-3.57842 -0.1022,-4.08834 -1.7329,-0.66497 -3.1684,0.44526 -3.9933,3.08834 -0.5678,1.81954 -0.3179,2.25 1.3063,2.25 1.1046,0 2.3597,-0.5625 2.7892,-1.25 z m 6.1335,10.71306 c -0.2953,-0.29532 0.6422,-4.56939 2.0834,-9.49792 2.2678,-7.75559 2.915,-8.96126 4.8112,-8.96306 3.3301,-0.003 3.4912,1.20884 1.1497,8.64915 -1.1854,3.76682 -2.1125,7.63627 -2.0601,8.59877 0.069,1.26856 -0.6672,1.75 -2.676,1.75 -1.5242,0 -3.0128,-0.24162 -3.3082,-0.53694 z m 11.9794,-0.0206 c -0.3066,-0.30666 0.2899,-3.34416 1.3257,-6.75 2.4023,-7.89899 2.3916,-8.01984 -0.6595,-7.4366 -1.9437,0.37157 -2.424,0.13978 -2,-0.96521 0.3069,-0.79983 0.5581,-1.64242 0.5581,-1.87244 0,-0.23001 3.6,-0.41821 8,-0.41821 6.4444,0 8,0.29167 8,1.5 0,1.38462 -1.7219,1.96269 -4.7146,1.58279 -0.6991,-0.0888 -2.1437,3.04358 -3.4041,7.38151 -1.8613,6.40574 -2.5164,7.5357 -4.3688,7.5357 -1.1986,0 -2.4301,-0.2509 -2.7368,-0.55756 z m 10.2243,-0.46253 c 0,-0.56104 2.5875,-4.59935 5.75,-8.97402 5.4088,-7.48206 5.9724,-7.95548 9.5,-7.97992 l 3.75,-0.026 0,7.41821 c 0,4.08002 0.2731,8.13002 0.6069,9 0.4733,1.23322 -0.078,1.58179 -2.5,1.58179 -2.6437,0 -3.1069,-0.37109 -3.1069,-2.4888 0,-2.08909 -0.4417,-2.46183 -2.75,-2.32089 -3.0452,0.18592 -6.5028,2.59172 -5.6674,3.94334 0.2944,0.47649 -0.8412,0.86635 -2.5236,0.86635 -1.6825,0 -3.059,-0.45903 -3.059,-1.02007 z m 14,-9.53895 c 0,-2.78087 -1.3603,-2.5049 -3.0299,0.61471 -0.8721,1.6297 -0.7112,1.94431 0.9947,1.94431 1.5167,0 2.0352,-0.65192 2.0352,-2.55902 z m 8.5576,9.65237 c -0.3081,-0.49866 0.3345,-3.76116 1.4281,-7.25 1.0937,-3.48884 1.9943,-6.50831 2.0014,-6.70993 0.01,-0.20161 -1.1339,-0.14735 -2.5355,0.12058 -1.958,0.3743 -2.4768,0.11171 -2.239,-1.13342 0.2503,-1.31072 1.9034,-1.67641 8.6458,-1.9126 6.4652,-0.22647 8.2398,-0.002 7.9064,1 -0.2364,0.71061 -1.7128,1.51702 -3.2809,1.79202 -2.5881,0.45387 -3.0325,1.16887 -4.8179,7.75 -1.7138,6.31752 -2.2614,7.25 -4.2574,7.25 -1.2598,0 -2.5428,-0.40799 -2.851,-0.90665 z m 13.4424,-0.39937 c 0,-0.71831 1.0546,-4.85276 2.3436,-9.18766 l 2.3437,-7.88165 6.6802,-0.0623 c 5.4184,-0.0506 6.6268,0.22099 6.3977,1.43766 -0.1866,0.99105 -1.7216,1.60433 -4.5239,1.8075 -5.4786,0.3972 -6.0636,3.1925 -0.668,3.1925 2.8823,0 3.4993,0.33842 3.1906,1.75 -0.2105,0.9625 -0.9832,1.61595 -1.717,1.4521 -2.8439,-0.63493 -6.8589,0.97086 -7.3765,2.95025 -0.4863,1.85955 -0.1448,2.00723 3.8983,1.68567 4.5469,-0.36163 4.8696,-0.14393 3.8243,2.58019 -0.8017,2.08911 -14.393,2.34951 -14.393,0.27574 z m 16.0153,0.056 c 0.03,-2.42353 1.5304,-3.25 5.9013,-3.25 5.2632,0 6.8081,-2.20506 2.1917,-3.12833 -3.9551,-0.79103 -5.3524,-2.55095 -4.5533,-5.735 0.9529,-3.79675 2.8127,-4.83587 8.9378,-4.99396 4.2342,-0.10928 5.4097,0.16925 5.0183,1.18908 -0.2811,0.7325 -0.5111,1.52 -0.5111,1.75002 0,0.23001 -1.8,0.41821 -4,0.41821 -5.0102,0 -5.0987,1.29845 -0.25,3.66764 3.1493,1.53886 3.7171,2.29228 3.5451,4.70377 -0.357,5.00312 -2.797,6.62859 -9.9501,6.62859 -4.4175,0 -6.3404,-0.37973 -6.3297,-1.25 z m 186.2852,-8.00093 0.1995,-10.75092 -61.25,9.2e-4 c -33.6875,5.1e-4 -61.25,0.15079 -61.25,0.33395 0,0.34997 5.6808,18.25626 6.4799,20.42512 0.3666,0.99502 12.5047,1.20415 58.0424,1 l 57.5788,-0.25812 0.1994,-10.75093 z M 345.27397,290.149 c 2.4488,-7.5625 10.3461,-31.93181 17.5494,-54.15402 7.2034,-22.22222 13.0971,-40.9522 13.0971,-41.62219 0,-0.67 -1.8364,-1.51181 -4.0808,-1.87071 -2.2444,-0.35889 -6.728,-1.72823 -9.9636,-3.04297 l -5.8829,-2.39043 -7.4538,22.66516 c -4.0996,12.46584 -12.5011,38.19016 -18.6701,57.16516 -6.169,18.975 -11.4293,35.0625 -11.6896,35.75 -0.3616,0.9552 2.2525,1.25 11.0843,1.25 l 11.5575,0 4.4525,-13.75 z m -159.27891,-5.30314 2.88337,-2.05314 -2.40546,-3.81049 -2.40546,-3.81049 3.92646,-3.7207 c 3.17517,-3.00878 3.92718,-4.42209 3.9302,-7.38637 l 0.004,-3.66567 1.91058,3.13329 c 4.45295,7.30266 10.86902,8.4229 16.84663,2.9414 3.5081,-3.21696 3.73341,-3.78098 3.70412,-9.27262 -0.0256,-4.80115 -0.56235,-6.63203 -3,-10.2334 -1.63285,-2.41235 -4.19041,-5.29067 -5.68348,-6.39625 -2.40618,-1.78173 -3.16487,-1.87528 -6.6763,-0.82323 -2.20014,0.65918 -5.15355,2.60344 -6.64226,4.37268 -2.33501,2.77499 -2.62487,3.85815 -2.24814,8.40095 l 0.43248,5.21521 -2.72676,-2.91902 c -1.49998,-1.60545 -3.62198,-2.91901 -4.71581,-2.91901 -1.49885,0 -10.60049,5.78979 -15.07785,9.59141 -0.20297,0.17234 0.39414,1.07653 1.32692,2.00931 0.93277,0.93278 3.48381,5.56671 5.66897,10.29762 4.12418,8.92892 6.51025,13.10166 7.49184,13.10166 0.31492,0 1.8701,-0.92391 3.45595,-2.05314 z m -6.39404,-19.49048 c -0.94255,-1.97655 -1.45472,-4.01283 -1.13814,-4.52506 1.05623,-1.70902 3.39305,-0.95939 5.09195,1.63345 1.59382,2.43248 1.57939,2.66588 -0.27979,4.52506 -1.94705,1.94705 -1.97186,1.93602 -3.67402,-1.63345 z m 20.00309,-7.29623 c -3.30129,-6.06555 -3.46062,-9.67398 -0.49719,-11.25996 1.90998,-1.02218 2.48106,-0.80531 4.51563,1.71482 3.15612,3.90934 4.9854,10.0682 3.63193,12.22807 -2.15732,3.44265 -4.82573,2.50685 -7.65037,-2.68293 z m 375.21236,3.75856 c 4.8283,-3.56966 5.7575,-6.28993 3.5494,-10.39018 -1.4549,-2.70153 -1.6113,-3.76268 -0.6904,-4.68359 1.2276,-1.22761 3.4089,-0.53252 7.4811,2.38392 1.448,1.03709 2.0896,0.88985 3.8669,-0.88744 l 2.1308,-2.13081 -5.3099,-3.57592 c -6.0162,-4.05149 -8.2789,-4.00505 -13.6823,0.28083 -4.1611,3.30055 -4.7359,5.2281 -2.7208,9.12476 2.944,5.69318 -0.092,7.81544 -5.4807,3.8313 -1.825,-1.3493 -2.6631,-2.69055 -2.2895,-3.66405 0.65,-1.69389 -0.8762,-1.08369 -4.0006,1.59956 -2.7164,2.33279 -2.1544,3.54468 3.5,7.54702 5.8596,4.14765 8.6439,4.26285 13.646,0.5646 z M 224.17043,256.9564 c 1.5125,-0.75814 2.75,-1.7364 2.75,-2.17391 0,-0.43751 -1.2375,-2.9607 -2.75,-5.60708 -1.5125,-2.64638 -4.52238,-8.29118 -6.68863,-12.544 -2.16625,-4.25283 -4.27865,-7.73241 -4.69424,-7.73241 -0.41558,0 -1.90183,1.0125 -3.30278,2.25 l -2.54719,2.25 6.56207,12.80978 c 3.60913,7.04539 6.86777,12.65595 7.24142,12.46792 0.37364,-0.18803 1.91685,-0.96217 3.42935,-1.7203 z m 332.50004,-4.00096 c 2.6389,-2.20153 2.8374,-3.05644 0.7095,-3.05644 -0.8473,0 -2.8372,-0.95863 -4.4219,-2.1303 l -2.8814,-2.1303 2.8982,-2.43866 2.8982,-2.43866 3.4593,2.63858 c 2.8565,2.17872 3.8192,2.44603 5.5237,1.53377 2.8419,-1.52093 2.5612,-3.16338 -0.9607,-5.62238 -2.9414,-2.05358 -2.9586,-2.11691 -1.0452,-3.8485 1.8675,-1.69008 2.0818,-1.65653 5.3522,0.83795 3.8306,2.9217 5.931,3.25171 7.6343,1.19944 0.9376,-1.12981 0,-2.28452 -4.8887,-6 -3.3275,-2.53052 -6.2765,-4.60094 -6.5534,-4.60094 -1.129,0 -22.9919,17.28445 -23.2092,18.34883 -0.2436,1.19357 10.4704,9.58763 12.2351,9.58572 0.55,-6e-4 2.0125,-0.84575 3.25,-1.87811 z m -320.22101,-5.07789 c 3.13331,-2.3147 5.70971,-5.0816 6.07058,-6.51941 0.80394,-3.20314 -0.98911,-7.50006 -4.55543,-10.91681 -2.67296,-2.56087 -3.01352,-2.6318 -6.95943,-1.44957 -3.29969,0.9886 -4.39824,0.98941 -5.36685,0.004 -0.96147,-0.97822 -0.43846,-1.86807 2.48404,-4.22634 3.33509,-2.69121 3.59169,-3.22917 2.58948,-5.42879 -0.61185,-1.34286 -1.37772,-2.43929 -1.70194,-2.43652 -0.32421,0.003 -2.83948,1.7053 -5.58948,3.7834 -6.26009,4.73057 -7.00541,8.33834 -2.9794,14.42206 2.79772,4.22763 3.7012,4.40603 11.21725,2.21497 1.61694,-0.47137 2.42627,-0.16136 2.91694,1.11732 0.82448,2.14856 -5.07542,7.89351 -7.24959,7.0592 -1.70909,-0.65583 -1.78117,0.47873 -0.24468,3.85096 1.5726,3.45149 3.00592,3.22592 9.36851,-1.4744 z m 313.15251,-14.32383 c 5.5998,-4.19324 10.4396,-8.04174 10.7551,-8.55224 0.3155,-0.51049 -0.6115,-1.79147 -2.06,-2.84663 l -2.6336,-1.91847 -3.6215,3.32653 c -4.1757,3.83555 -5.1805,4.03346 -7.4947,1.47625 -1.5971,-1.76479 -1.5028,-1.99738 1.845,-4.55089 4.1649,-3.17673 4.3232,-4.02222 1.1433,-6.10579 -2.3165,-1.51782 -2.7107,-1.31539 -13.75,7.06165 -6.2508,4.74335 -11.5178,9.04404 -11.7043,9.55708 -0.1866,0.51304 0.7053,1.77858 1.9819,2.81231 2.3153,1.87479 2.3348,1.86865 7.7601,-2.43524 5.2688,-4.17971 5.511,-4.26256 7.7367,-2.64702 1.2637,0.91726 2.3001,1.89274 2.3032,2.16774 0,0.275 -2.2327,2.01839 -4.9685,3.8742 -2.7358,1.85581 -4.9742,3.73078 -4.9742,4.16659 0,0.43582 1.2223,1.68281 2.7163,2.7711 2.1374,1.557 2.9366,1.71104 3.75,0.7228 0.5685,-0.69075 5.6153,-4.68673 11.2152,-8.87997 z m -295.9859,1.38928 c 8.8803,-5.41467 8.9525,-15.54148 0.1821,-25.5305 -2.2169,-2.52485 -3.9139,-3.5135 -6.03099,-3.5135 -6.5486,0 -12.83517,6.14493 -12.84301,12.55366 -0.005,4.10516 4.45056,12.80938 8.15074,15.92287 3.59817,3.02766 6.27042,3.17152 10.54116,0.56747 z m -7.4928,-8.294 c -1.07816,-1.7875 -2.52449,-5.01244 -3.21407,-7.16652 -1.11982,-3.49803 -1.05893,-4.05901 0.56985,-5.25 2.93631,-2.14709 4.20371,-1.59518 6.89922,3.00438 2.7221,4.64491 3.292,9.51226 1.3422,11.46214 -1.9626,1.96253 -3.52134,1.39163 -5.5972,-2.05 z m 280.9148,-2.63235 c 4.095,-4.09499 4.8683,-7.05451 2.3824,-9.11765 -1.8553,-1.53969 -1.9204,-3.40626 -0.1696,-4.8593 1.0059,-0.83481 2.1379,-0.50848 4.6403,1.33769 3.2333,2.38549 5.8375,2.25892 7.4576,-0.36244 0.7989,-1.29259 -8.4008,-8.11595 -10.9424,-8.11595 -2.8201,0 -10.124,5.2843 -10.9646,7.93281 -0.3861,1.21654 0.071,3.26164 1.1302,5.05441 1.6346,2.7672 1.6484,3.14145 0.1697,4.62011 -1.4787,1.47866 -1.8883,1.41798 -5.0565,-0.74917 -1.8961,-1.29699 -3.2564,-2.92066 -3.0228,-3.60816 0.612,-1.80117 -0.5005,-1.54872 -4.0876,0.92757 l -3.1543,2.17757 2.0789,-2.42757 c 1.1434,-1.33516 5.2953,-6.13089 9.2264,-10.65718 3.9311,-4.52628 6.919,-8.8251 6.6397,-9.55292 -0.8337,-2.17259 -6.3795,-5.00742 -7.7414,-3.95714 -0.662,0.51052 -6.9577,3.31804 -13.9904,6.23892 -7.0327,2.92088 -13.0498,5.73635 -13.3714,6.25659 -0.3215,0.52024 0.2976,1.82807 1.3758,2.90628 1.9472,1.94718 1.9848,1.94598 5.5826,-0.17678 3.5306,-2.08307 3.6857,-2.09095 6.1296,-0.31125 3.074,2.23856 3.1447,3.08539 0.4938,5.90718 l -2.0763,2.21018 2.5933,1.85427 c 1.4263,1.01986 5.1148,3.76678 8.1966,6.10428 7.4779,5.67175 11.0956,5.75245 16.4804,0.36765 z m -20.5259,-19.42692 c -1.6307,-1.19237 -1.4232,-1.45356 2.3239,-2.92545 l 4.1144,-1.61618 -2.0831,2.92545 c -2.4257,3.4066 -2.0814,3.27883 -4.3552,1.61618 z m -236.0365,18.24822 c 1.1666,-1.28911 1.4834,-2.31909 0.8457,-2.75 -0.9063,-0.6124 -6.4009,-9.88684 -6.4009,-10.80412 0,-0.1998 2.943,1.43806 6.54,3.63969 5.3241,3.25871 6.9045,3.80794 8.5,2.95404 2.5733,-1.3772 2.4902,-2.12858 -0.916,-8.28261 -1.5817,-2.85777 -4.5175,-8.46854 -6.5238,-12.46836 -3.1097,-6.19925 -3.9027,-7.12649 -5.3741,-6.28349 -4.4907,2.57279 -4.4838,2.53096 -1.3156,7.90417 1.6707,2.83345 2.7615,5.15173 2.4241,5.15173 -0.3374,0 -2.8253,-1.36094 -5.5286,-3.02432 -4.8372,-2.97639 -4.9618,-2.99674 -7.8606,-1.28439 -3.0115,1.77896 -3.6104,3.17469 -2.0848,4.85871 0.7134,0.78752 5.4212,9.40216 11.0391,20.2 1.4606,2.80736 4.2151,2.88556 6.6555,0.18895 z m 20.5083,-15.06453 c 3.2348,-2.26907 6.1615,-5.00819 6.5039,-6.08694 1.072,-3.37747 -0.475,-8.32473 -3.5133,-11.23559 -2.9459,-2.82238 -4.6317,-2.99068 -10.6662,-1.06481 -2.8541,0.91086 -4.1509,-2.24932 -1.6603,-4.04597 5.6976,-4.11013 5.5988,-3.95902 4.2635,-6.52028 -0.6941,-1.33145 -1.4014,-2.58367 -1.5718,-2.78269 -0.3433,-0.40104 -9.4906,6.77827 -10.654,8.36186 -1.4747,2.0072 -0.7039,6.12619 1.8496,9.88402 l 2.615,3.8483 5.7642,-0.65215 c 4.6458,-0.52561 5.8771,-0.35816 6.3457,0.86299 0.6607,1.72182 -5.0057,6.55684 -7.6842,6.55684 -0.9106,0 -1.6556,0.24735 -1.6556,0.54966 0,1.01811 3.0458,6.45034 3.6167,6.45034 0.3109,0 3.212,-1.85651 6.4468,-4.12558 z m 197.9219,-5.62442 c 1.2904,-1.5125 5.4216,-6.18461 9.1804,-10.38248 3.7588,-4.19786 6.8342,-8.05073 6.8342,-8.56194 0,-0.5112 -1.35,-1.92756 -3,-3.14746 -1.65,-1.2199 -3,-1.78832 -3,-1.26317 0,0.91242 -11.0433,7.39513 -11.6182,6.82021 -0.1525,-0.15244 1.5012,-2.51322 3.6748,-5.24616 l 3.952,-4.969 -2.7202,-2.20966 c -2.28,-1.85212 -2.9684,-1.99825 -4.2543,-0.90311 -0.8438,0.7186 -6.5966,4.32917 -12.7841,8.02348 -6.1875,3.69431 -11.25,7.06846 -11.25,7.49812 0,0.42966 0.8717,1.57009 1.9371,2.53431 1.4807,1.33995 2.2466,1.48321 3.25,0.60788 1.7235,-1.50342 11.8527,-8.05102 12.4551,-8.05102 0.2572,0 -1.5821,2.51625 -4.0873,5.59167 -5.0393,6.18623 -5.2012,6.62707 -3.0811,8.3866 1.1981,0.99434 2.6782,0.54959 7.9125,-2.37756 3.5412,-1.98039 6.7298,-3.60071 7.0857,-3.60071 0.3558,0 -1.1798,2.16646 -3.4125,4.81436 -4.5107,5.34939 -4.8709,6.61367 -2.3095,8.10554 2.4723,1.44 2.6233,1.39182 5.2354,-1.6699 z m -85.2205,-16.70056 c 16.4111,-3.45218 29.6164,-11.24626 39.9746,-23.59399 3.4398,-4.1005 6.2556,-7.78 6.2573,-8.17667 0,-0.96918 -11.5608,-4.33603 -21.8292,-6.35499 l -8.3323,-1.63829 -4.8251,5.41362 c -2.6538,2.9775 -6.6598,6.24096 -8.9022,7.25215 l -4.0771,1.83852 -6.5611,-3.23003 c -3.6086,-1.77651 -8.369,-5.05608 -10.5787,-7.28792 l -4.0175,-4.0579 -8.482,1.77999 c -7.4184,1.5568 -8.6625,2.12909 -9.9217,4.56419 -0.7919,1.53131 -2.7966,3.75032 -4.4549,4.93114 -3.2834,2.33801 -3.8707,5.05571 -1.515,7.01074 1.0624,0.88175 1.5,3.21541 1.5,8 0,7.4676 0.2092,7.78016 7,10.45779 10.7898,4.25446 27.0661,5.55256 38.7649,3.09165 z m 65.8008,-4.04666 c 3.812,-3.59522 4.2738,-6.29179 1.7398,-10.1592 -1.607,-2.45257 -1.5981,-2.65653 0.173,-3.95155 1.6372,-1.19717 2.2853,-1.04681 5.2569,1.21973 3.2486,2.47783 3.4699,2.51239 5.327,0.83175 1.0656,-0.96442 1.926,-2.02124 1.9118,-2.3485 -0.014,-0.32725 -2.2421,-2.09813 -4.9508,-3.93528 -5.5726,-3.77949 -8.627,-3.72305 -13.1607,0.24318 -4.4771,3.91679 -5.0186,5.81165 -2.7343,9.56798 1.8382,3.02263 1.8762,3.453 0.4327,4.89657 -1.4436,1.44358 -1.8235,1.43695 -4.3219,-0.0754 -2.3021,-1.39346 -3.3069,-2.54517 -4.9209,-5.64034 -0.3876,-0.74348 -5.2573,3.41336 -5.2869,4.5131 -0.032,1.19533 8.3091,7.69534 10.9308,8.5179 2.757,0.86499 6.1719,-0.44355 9.6035,-3.67995 z m -114.2866,-8.75278 -0.5392,-4.75 -5.87,0 c -3.2285,0 -5.8699,0.22593 -5.8699,0.50207 0,0.63567 12.192,9.64187 12.5517,9.27195 0.1466,-0.15071 0.024,-2.41152 -0.2726,-5.02402 z m -2.2791,-9.67653 0,-2.92652 -8.75,-0.32883 c -4.8125,-0.18086 -8.9747,-0.17673 -9.2494,0.009 -0.2746,0.1859 0.97,1.65081 2.7658,3.25535 2.8365,2.5344 4.0507,2.91736 9.2493,2.91736 5.9491,0 5.9843,-0.0172 5.9843,-2.92653 z m 3,-7.92729 c 3.861,-2.85329 15.1949,-18.19583 14.5955,-19.75778 -0.8797,-2.29247 -3.3684,-1.58838 -7.4639,2.1116 -2.1307,1.925 -4.327,3.5 -4.8805,3.5 -1.9406,0 -2.0373,-17.91089 -0.1429,-26.44902 1.8127,-8.16956 1.7337,-9.55098 -0.5459,-9.55098 -1.5878,0 -3.1048,3.53034 -4.8153,11.20593 -0.8619,3.86748 -1.6462,5.47441 -2.4343,4.98738 -0.8548,-0.52832 -0.6466,-2.24698 0.7863,-6.49152 1.0719,-3.17513 2.2298,-7.82198 2.5731,-10.32634 0.5994,-4.373515 0.5294,-4.53998 -1.774,-4.21441 -2.1245,0.30029 -2.5969,1.25171 -4.1405,8.33896 -0.9583,4.4 -1.5629,8.7875 -1.3436,9.75 0.3153,1.38401 -0.2614,1.74598 -2.7577,1.73076 -3.1285,-0.0191 -3.1854,-0.11171 -6.4459,-10.5 -1.8092,-5.76442 -3.6666,-10.480757 -4.1275,-10.480757 -0.4609,0 -1.3655,0.635513 -2.0101,1.412247 -0.912,1.0989 -0.6038,3.37323 1.3888,10.25 1.4086,4.86076 3.0247,8.99401 3.5914,9.185 1.4303,0.482 -0.8861,3.15275 -2.7345,3.15275 -0.7901,0 -1.1833,-0.40988 -0.8737,-0.91083 0.9179,-1.48508 -3.6467,-17.08917 -4.999,-17.08917 -2.2324,0 -2.321,2.66565 -0.3834,11.53231 1.363,6.23694 1.8514,11.95229 1.6976,19.86218 -0.2837,14.59104 1.3013,17.81593 10.1816,20.71666 4.0033,1.30767 14.2228,0.13048 17.0584,-1.96497 z m 49.9835,-0.13779 c 4.2595,-2.17304 11.0165,-8.61022 11.0165,-10.49512 0,-2.54833 -1.3169,-2.22202 -4.1765,1.03492 -6.0014,6.83518 -15.9919,6.83021 -23.3389,-0.0116 -4.5021,-4.19265 -5.4846,-4.50002 -5.4846,-1.71585 0,2.4597 11.0727,11.3006 15.6089,12.46277 1.0401,0.26647 2.0215,0.53669 2.1809,0.60049 0.1594,0.0638 2.0466,-0.78022 4.1937,-1.87561 z m 47.8027,-8.75839 c 4.622,-10.80178 5.6931,-16.32571 5.6718,-29.25 -0.023,-13.60745 -1.3332,-19.684325 -6.5213,-30.235006 -4.2955,-8.735574 -8.1799,-13.879238 -15.768,-20.879577 -13.1336,-12.116423 -28.3838,-18.040058 -46.6687,-18.127564 -30.8024,-0.147411 -57.1373,19.058543 -66.8649,48.764347 -2.1776,6.64992 -3.2926,19.25727 -2.4928,28.18673 0.6517,7.27558 3.3953,17.94549 5.0891,19.79102 1.3014,1.41803 0.3367,-22.35444 -1.2661,-31.19808 l -1.3045,-7.19807 4.0519,-4.05192 c 6.2852,-6.285174 7.3092,-5.738433 11.1397,5.94807 4.25,12.96614 4.7767,13.00298 7.1476,0.5 1.6338,-8.616206 1.9289,-9.391599 3.9952,-10.497472 2.515,-1.345992 4.8988,-0.272824 5.6,2.521122 0.3342,1.33128 1.5964,2.55861 2.9914,2.90875 2.8563,0.71687 3.1309,3.8585 1.0987,12.5676 -0.8165,3.4994 -1.0836,8.77372 -0.7343,14.5 l 0.549,9 2.2389,-3.13881 c 2.529,-3.54551 6.3438,-4.92246 9.2816,-3.35021 2.9267,1.56634 2.4401,3.65884 -2.0327,8.74012 -2.2066,2.5069 -3.8796,4.69048 -3.7177,4.85239 0.2729,0.27285 3.7836,-0.46896 12.8652,-2.7184 5.2542,-1.30141 5.317,-3.55799 0.2843,-10.21487 -2.9222,-3.86529 -4.5148,-7.12207 -4.9713,-10.16617 -0.5415,-3.61095 -1.2974,-4.86567 -3.9004,-6.47444 -1.7759,-1.09752 -3.9603,-3.69067 -4.8544,-5.76255 -1.8253,-4.22996 -3.6935,-13.873795 -3.6935,-19.065726 0,-3.392689 0.027,-3.413622 2.4014,-1.85789 l 2.4014,1.573461 -0.5397,-5.951038 c -0.6385,-7.042164 1.1108,-16.213958 4.1134,-21.566807 4.1803,-7.45252 14.339,-11.707551 28.1235,-11.779783 9.0237,-0.04728 14.6026,1.897937 20.6358,7.195128 5.0343,4.420159 10.7565,16.415552 12.3481,25.885168 0.721,4.290236 1.3571,7.289684 1.4135,6.66544 0.056,-0.624245 1.253,-1.888763 2.659,-2.81004 l 2.5565,-1.67505 -0.6403,6.31004 c -1.2039,11.866457 -3.1773,18.043127 -6.8082,21.310037 -2.6045,2.34332 -3.7111,4.53226 -5.0557,10 -0.9468,3.85 -2.8211,8.67785 -4.1651,10.72856 -4.102,6.25894 -4.1191,6.2444 10.9375,9.33071 6.1154,1.25354 12.6939,2.9729 14.6189,3.82081 5.1203,2.25534 5.5569,2.07984 7.7862,-3.13008 z m -42.0163,-2.61622 c 7.0658,-7.66556 9.2195,-11.82435 11.2704,-21.76375 1.0633,-5.15352 1.9393,-11.40477 1.9465,-13.89167 0.012,-3.94528 -3.0007,-17.325514 -4.1616,-18.486495 -0.2302,-0.230185 -2.6476,0.275907 -5.3719,1.124648 -9.3858,2.92407 -25.9537,1.958257 -35.6358,-2.077358 -1.2223,-0.509486 -2.0778,0.07294 -3.1283,2.129797 -2.8788,5.636327 -3.6968,12.676408 -2.5563,22.000698 1.6884,13.80244 3.9207,18.57605 12.8979,27.58035 l 7.7267,7.75 6.4939,0 c 6.3857,0 6.5608,-0.0727 10.5185,-4.36622 z m -16.2699,-10.68432 c 2.6214,-1.06023 9.4685,-1.0354 12,0.0435 1.3181,0.56179 -0.7275,0.83757 -6,0.8089 -5.0941,-0.0277 -7.2736,-0.33733 -6,-0.8524 z m 3.5,-7.94946 c -3.0393,-0.97335 -2.7819,-1.07739 3.2507,-1.31382 5.0081,-0.19626 6.2904,0.66754 2.4993,1.68353 -2.5675,0.68806 -2.4169,0.69774 -5.75,-0.36971 z m -11,-20.06739 c 0,-0.61231 -0.8527,-0.79675 -2,-0.43261 -1.1474,0.36414 -2,0.1797 -2,-0.43261 0,-1.04455 1.4826,-1.40539 5.5,-1.33854 3.6701,0.0611 3.8943,0.26198 1.9411,1.73935 -2.3257,1.75902 -3.4411,1.90957 -3.4411,0.46441 z m 22.6873,-0.41929 c -2.5642,-1.875 -0.4155,-2.88925 4.1275,-1.94824 2.6657,0.55215 3.1319,0.88597 1.6852,1.20672 -1.1,0.24388 -2.4513,0.80779 -3.0029,1.25313 -0.5515,0.44534 -1.816,0.21511 -2.8098,-0.51161 z m -18.6873,-2.63431 c -1.925,-1.03174 -4.6678,-1.876598 -6.0951,-1.877453 -1.4272,-8.55e-4 -3.4095,-0.901554 -4.4049,-2.001554 -2.1625,-2.389467 -1.6901,-2.501424 2.1356,-0.506161 1.5754,0.821612 4.0234,1.496612 5.44,1.5 1.4484,0.0035 3.6037,1.100394 4.9244,2.506158 2.7034,2.87771 2.6728,2.88352 -2,0.37901 z m 14,1.34856 c 0,-1.88646 3.692,-4.154694 7.8432,-4.81849 2.36,-0.377386 4.9358,-1.330956 5.7239,-2.119045 1.2231,-1.223085 1.4329,-1.226303 1.4329,-0.02198 0,1.661211 -4.1128,3.731944 -7.4122,3.731944 -1.275,0 -3.5038,0.932661 -4.953,2.072581 -1.4492,1.13992 -2.6348,1.65966 -2.6348,1.15499 z m -34.6217,6.2013 c -1.3025,-6.21374 -5.303,-14.646228 -7.6309,-16.084975 -1.2229,-0.75577 -0.4803,6.849455 1.2571,12.875055 1.054,3.65535 5.4143,9.78105 6.9622,9.78105 0.434,0 0.1692,-2.95701 -0.5884,-6.57113 z m 62.2082,-6.05381 c 0.7602,-3.23128 1.3792,-7.225057 1.3756,-8.875057 l -0.01,-3 -1.9557,2.5 c -2.3216,2.967821 -4.6923,9.753217 -5.5902,15.999997 l -0.6469,4.5 2.7209,-2.62494 c 1.7777,-1.71511 3.1999,-4.66129 4.103,-8.5 z m 169.1787,628.45974 c 0.8869,-0.88694 0.7937,-1.43683 -0.3903,-2.30262 -1.3929,-1.01847 -1.3697,-1.28875 0.222,-2.58479 1.5891,-1.294 1.708,-1.26193 1.1217,0.30261 -0.3607,0.9625 -0.22,1.75 0.3127,1.75 0.5328,0 0.9687,-0.38864 0.9687,-0.86364 0,-1.06321 5.156,-6.31361 5.6828,-5.78682 1.5412,1.54119 1.0128,5.17757 -0.9551,6.57322 -4.6599,3.30479 -9.2931,5.24258 -6.9625,2.91204 z m 6.2348,-3.77578 c 0,-1.67643 -1.7736,-2.09154 -2.3639,-0.55328 -0.3483,0.90766 0,1.49426 0.8952,1.49426 0.8078,0 1.4687,-0.42344 1.4687,-0.94098 z m 3.9348,-4.18085 c -0.9418,-1.75973 -0.7719,-2.48502 0.9957,-4.25 2.0746,-2.07158 2.1238,-2.07499 1.8504,-0.12817 -0.1545,1.1 0.1691,2.1125 0.7191,2.25 0.55,0.1375 1,-0.725 1,-1.91667 0,-2.67932 2.0196,-3.52757 2.905,-1.22014 0.9423,2.45562 -3.2474,6.76252 -5.0905,5.23288 -1.0731,-0.89055 -1.2273,-0.78233 -0.7304,0.51249 0.911,2.37423 -0.3123,2.01791 -1.6493,-0.48039 z m 7.6486,-6.5213 c -0.8869,-2.31114 0.045,-2.87134 1.8213,-1.09497 0.825,0.825 1.2214,1.77858 0.881,2.11905 -1.0596,1.05958 -2.0462,0.68569 -2.7023,-1.02408 z"
     id="path2987"
     inkscape:connector-curvature="0" />
</svg>
